<svg xmlns="http://www.w3.org/2000/svg"
   xmlns:xlink="http://www.w3.org/1999/xlink" width="163" height="69" viewBox="0 0 163 69">
   <defs>
      <clipPath id="clip-path">
         <rect id="Rectangle_1" data-name="Rectangle 1" width="163" height="69" fill="none"/>
      </clipPath>
   </defs>
   <g id="Group_4083" data-name="Group 4083" transform="translate(0 0)">
      <g id="Group_1" data-name="Group 1" transform="translate(0 0)" clip-path="url(#clip-path)">
         <path id="Path_1" data-name="Path 1" d="M43.2,40.228l-3.154,9.684,3.459,11.773H37.789L35.56,52.491v9.194H30.03V40.228h5.53v8.34l2.447-8.34Zm11.355,0,3.17,21.457H52.055l-.269-3.855H49.793l-.32,3.855H43.739l2.814-21.457ZM51.625,54.022q-.42-3.64-.84-9-.841,6.152-1.044,9Zm19.958-4.441H66.058V45.844a6.593,6.593,0,0,0-.185-2.037.751.751,0,0,0-.777-.4.834.834,0,0,0-.877.478,7.959,7.959,0,0,0-.187,2.133v9.967a7.248,7.248,0,0,0,.187,2.034.808.808,0,0,0,.835.483.777.777,0,0,0,.8-.483,7.588,7.588,0,0,0,.2-2.239V53.1h5.525v.836a16.531,16.531,0,0,1-.466,4.71,4.764,4.764,0,0,1-2.062,2.439,7,7,0,0,1-3.928,1.061,8.185,8.185,0,0,1-4.018-.892,4.34,4.34,0,0,1-2.09-2.464,16.329,16.329,0,0,1-.5-4.722V47.8a27.1,27.1,0,0,1,.155-3.477,4.984,4.984,0,0,1,.936-2.243,5.263,5.263,0,0,1,2.17-1.687,7.855,7.855,0,0,1,3.186-.615A7.753,7.753,0,0,1,69,40.729a4.619,4.619,0,0,1,2.085,2.379,14.527,14.527,0,0,1,.5,4.432Zm11.233-9.353v4.291L78.693,57.387h4.123v4.3h-10.2v-3.11l4.26-14.056h-3.76V40.228Zm18.5,0V61.685H96.484V47.194l-1.94,14.49H91.111L89.082,47.529V61.685H84.246V40.228h7.162q.317,1.936.665,4.56l.767,5.467L94.1,40.228Zm11.765,0,3.171,21.457h-5.669l-.267-3.855h-2L108,61.685h-5.735l2.815-21.457Zm-2.92,13.794c-.289-2.427-.564-5.43-.852-9q-.837,6.152-1.049,9ZM117.2,40.228h3.908a29.929,29.929,0,0,1,5.306.3,3.67,3.67,0,0,1,2.261,1.56,7.1,7.1,0,0,1,.872,4,6.173,6.173,0,0,1-.624,3.362,3.141,3.141,0,0,1-2.421,1.036,4.143,4.143,0,0,1,2.206,1.094,3.28,3.28,0,0,1,.7,1.269,20.023,20.023,0,0,1,.139,3.175v5.66h-5.135v-7.13a4.988,4.988,0,0,0-.271-2.137c-.179-.277-.648-.408-1.405-.408v9.675H117.2Zm5.536,3.662v4.784a2.4,2.4,0,0,0,1.3-.258c.251-.175.38-.733.38-1.678V45.557a1.754,1.754,0,0,0-.368-1.341,1.971,1.971,0,0,0-1.308-.327M143.4,46.724h-5.128V45.133a3.132,3.132,0,0,0-.2-1.416.693.693,0,0,0-.657-.306.808.808,0,0,0-.756.412,2.34,2.34,0,0,0-.25,1.241,3.51,3.51,0,0,0,.287,1.619A4.233,4.233,0,0,0,138.26,48q3.687,2.208,4.649,3.63a8.354,8.354,0,0,1,.963,4.576,8.12,8.12,0,0,1-.538,3.375,4.189,4.189,0,0,1-2.059,1.824,8.849,8.849,0,0,1-7.33-.112,4.131,4.131,0,0,1-2.058-2.161A11.124,11.124,0,0,1,131.4,55.4V54h5.136v2.6a3.5,3.5,0,0,0,.218,1.553.845.845,0,0,0,.761.346.913.913,0,0,0,.829-.437,2.5,2.5,0,0,0,.275-1.3,4.077,4.077,0,0,0-.515-2.479,16.53,16.53,0,0,0-2.593-1.943,28.361,28.361,0,0,1-2.74-2.008,4.773,4.773,0,0,1-1.1-1.725,7.559,7.559,0,0,1-.447-2.81,7.77,7.77,0,0,1,.631-3.6,4.152,4.152,0,0,1,2.012-1.781,8.036,8.036,0,0,1,3.363-.645,8.713,8.713,0,0,1,3.67.7,3.84,3.84,0,0,1,2.015,1.775,9.546,9.546,0,0,1,.488,3.621Zm15.383-6.5-3.168,9.684,3.465,11.773h-5.712l-2.236-9.194v9.194H145.6V40.228h5.535v8.34l2.457-8.34Zm6.785,21.457h-5.528V40.228h5.528Z" transform="translate(-2.468 -2.952)" fill="#002644" fill-rule="evenodd"/>
         <path id="Path_2" data-name="Path 2" d="M30,67.82h1.234v6.1H30Zm18.691,6.1v-6.1H49.9l2.5,4.076V67.82h1.141v6.1h-1.24l-2.46-3.989v3.989Zm22.434,0v-6.1h1.237v2.7l2.486-2.7h1.658l-2.3,2.374,2.426,3.73h-1.6l-1.68-2.873-.992,1.023v1.85Zm27.924,0H97.706l-.533-1.394h-2.44l-.508,1.394H92.918l2.378-6.1h1.311Zm-2.266-2.417-.843-2.267-.831,2.267Zm18.878.433,1.2-.121a1.466,1.466,0,0,0,.433.889,1.356,1.356,0,0,0,.9.281,1.393,1.393,0,0,0,.9-.249.777.777,0,0,0,.3-.59.552.552,0,0,0-.134-.371.93.93,0,0,0-.436-.265c-.144-.047-.479-.134-.994-.266a3.443,3.443,0,0,1-1.387-.6,1.572,1.572,0,0,1-.563-1.226,1.592,1.592,0,0,1,1.026-1.485,2.922,2.922,0,0,1,1.2-.212,2.576,2.576,0,0,1,1.728.5,1.748,1.748,0,0,1,.615,1.341l-1.241.056a1.022,1.022,0,0,0-.338-.674,1.192,1.192,0,0,0-.777-.206,1.444,1.444,0,0,0-.843.212.467.467,0,0,0-.2.387.461.461,0,0,0,.185.371,3.424,3.424,0,0,0,1.132.411,5.7,5.7,0,0,1,1.332.437,1.668,1.668,0,0,1,.674.62,1.793,1.793,0,0,1,.243.967,1.813,1.813,0,0,1-.291.985,1.777,1.777,0,0,1-.821.677,3.336,3.336,0,0,1-1.338.225,2.678,2.678,0,0,1-1.777-.537,2.3,2.3,0,0,1-.737-1.55m21.963,0,1.2-.121a1.405,1.405,0,0,0,.433.889,1.653,1.653,0,0,0,1.794.031.761.761,0,0,0,.3-.59.585.585,0,0,0-.125-.371.959.959,0,0,0-.447-.265c-.139-.047-.479-.134-.985-.266a3.415,3.415,0,0,1-1.4-.6,1.615,1.615,0,0,1-.3-2.1,1.563,1.563,0,0,1,.762-.608,2.924,2.924,0,0,1,1.2-.212,2.571,2.571,0,0,1,1.729.5,1.764,1.764,0,0,1,.62,1.341l-1.24.056a.982.982,0,0,0-.341-.674,1.177,1.177,0,0,0-.777-.206,1.453,1.453,0,0,0-.842.212.44.44,0,0,0-.192.387.451.451,0,0,0,.186.371,3.366,3.366,0,0,0,1.127.411,5.7,5.7,0,0,1,1.331.437,1.765,1.765,0,0,1,.682.62,1.842,1.842,0,0,1,.236.967,1.8,1.8,0,0,1-.289.985,1.708,1.708,0,0,1-.827.677,3.356,3.356,0,0,1-1.333.225,2.687,2.687,0,0,1-1.779-.537,2.267,2.267,0,0,1-.733-1.55M159.636,70.9a3.748,3.748,0,0,1,.282-1.563,3.329,3.329,0,0,1,.567-.842,2.513,2.513,0,0,1,.791-.545,3.4,3.4,0,0,1,1.323-.234,2.839,2.839,0,0,1,2.153.83,3.219,3.219,0,0,1,.813,2.327,3.18,3.18,0,0,1-.809,2.312,2.819,2.819,0,0,1-2.149.832,2.87,2.87,0,0,1-2.165-.832,3.132,3.132,0,0,1-.807-2.283m1.269-.041a2.329,2.329,0,0,0,.487,1.575,1.661,1.661,0,0,0,2.422,0,2.943,2.943,0,0,0,.02-3.159,1.593,1.593,0,0,0-1.234-.512,1.555,1.555,0,0,0-1.224.524,2.287,2.287,0,0,0-.472,1.572" transform="translate(-2.466 -5.026)" fill="#002644" fill-rule="evenodd"/>
         <path id="Path_3" data-name="Path 3" d="M2.572,0c.864,2.838,3.274,2.639,6.307,2.377,4.33-.359,9.643-.805,14.592,4.678,4.954-5.483,10.26-5.037,14.583-4.678,3.043.262,5.46.461,6.316-2.377l2.565.8c-1.5,4.934-4.868,4.653-9.1,4.3-4.193-.349-9.459-.8-14.022,5.892h-.687c-.3-.449-.608-.858-.917-1.241C17.865,4.36,13.015,4.765,9.1,5.1c-4.23.353-7.586.633-9.1-4.3Zm10.2,6.658a10.223,10.223,0,0,1,0,20.444,10.223,10.223,0,0,1,0-20.444m0,2.716a7.507,7.507,0,1,0,7.44,7.51,7.489,7.489,0,0,0-7.44-7.51m21.4,0a7.507,7.507,0,1,0,7.439,7.51,7.487,7.487,0,0,0-7.439-7.51m0-2.716A10.223,10.223,0,1,1,24.043,16.885,10.2,10.2,0,0,1,34.171,6.658M12.77,16.8a3.125,3.125,0,1,1-3.1,3.127,3.117,3.117,0,0,1,3.1-3.127m21.4,0a3.125,3.125,0,1,1-3.1,3.127,3.115,3.115,0,0,1,3.1-3.127M17.978,28.783l5.493-5.533L28.188,28l.77.782-.6.923-3.761,5.757-1.121,1.713-1.125-1.713-3.761-5.757Zm3.449.359,2.044,3.113,2.038-3.113-2.038-2.059ZM6.582,68.857a3.951,3.951,0,0,1,1.965-2.651,4.836,4.836,0,0,1,3.33-.308l1.5.268a6.432,6.432,0,0,1,.106-2.13,5.113,5.113,0,0,1,1.281-2.33c-4.037-4.4-7.785-9.128-9.779-13.969C2.721,42.26,2.692,36.717,6.871,31.444l2.18,1.765C5.626,37.516,5.671,42.1,7.553,46.66c1.982,4.807,5.981,9.65,10.193,14.138l1.032,1.085-1.166.958a3.6,3.6,0,0,0-1.41,1.842,8.526,8.526,0,0,0,.174,2.991l.2,1.223h-9.9Z" transform="translate(0 0)" fill="#d90017"/>
         <path id="Path_4" data-name="Path 4" d="M103.973,35V29.544h2.3a3.906,3.906,0,0,1,1.25.15,1.294,1.294,0,0,1,.636.524,1.562,1.562,0,0,1,.235.867,1.424,1.424,0,0,1-.359,1.007,1.7,1.7,0,0,1-1.068.505,2.686,2.686,0,0,1,.589.458,6.945,6.945,0,0,1,.61.889L108.833,35H107.52l-.785-1.186a7.974,7.974,0,0,0-.575-.8.862.862,0,0,0-.326-.237,2.115,2.115,0,0,0-.555-.053h-.221V35Zm1.085-3.15h.806a4.027,4.027,0,0,0,.98-.065.536.536,0,0,0,.309-.225.737.737,0,0,0,.112-.412.631.631,0,0,0-.15-.446.7.7,0,0,0-.408-.221c-.085-.006-.359-.006-.792-.006h-.858Zm4.114,1.12a2.228,2.228,0,0,1,.252-1.008,1.785,1.785,0,0,1,.725-.748,2.176,2.176,0,0,1,1.048-.253,1.969,1.969,0,0,1,1.45.577,2.209,2.209,0,0,1,0,2.966,1.94,1.94,0,0,1-1.45.586,2.213,2.213,0,0,1-1.025-.243,1.725,1.725,0,0,1-.748-.726,2.466,2.466,0,0,1-.252-1.151m1.061.053a1.3,1.3,0,0,0,.283.9.9.9,0,0,0,1.356,0,1.282,1.282,0,0,0,.28-.9,1.262,1.262,0,0,0-.28-.9.892.892,0,0,0-1.356,0,1.284,1.284,0,0,0-.283.9M113.994,35V29.544h1.034v2.9l1.213-1.385h1.279L116.183,32.5,117.616,35h-1.122l-.985-1.772-.481.508V35Zm5.921,0V34.2l1.468-1.709c.244-.274.42-.468.539-.593-.125.013-.285.019-.478.019l-1.381.009v-.864H123.3V31.8l-1.5,1.74-.538.577c.294-.016.475-.028.542-.028h1.615V35Zm4.966-2.745-.936-.171a1.551,1.551,0,0,1,.543-.854,2.067,2.067,0,0,1,1.155-.268,2.551,2.551,0,0,1,1.03.162,1.077,1.077,0,0,1,.484.421,2.218,2.218,0,0,1,.138.932l-.023,1.232a3.73,3.73,0,0,0,.06.764,2.573,2.573,0,0,0,.183.528h-1.025c-.025-.075-.062-.172-.1-.309a.865.865,0,0,1-.035-.118,1.947,1.947,0,0,1-.569.39,1.68,1.68,0,0,1-.652.128,1.311,1.311,0,0,1-.945-.333,1.085,1.085,0,0,1-.351-.83,1.146,1.146,0,0,1,.158-.608,1.187,1.187,0,0,1,.448-.393,3.438,3.438,0,0,1,.824-.246,5.386,5.386,0,0,0,1.008-.256v-.1a.534.534,0,0,0-.154-.433.883.883,0,0,0-.562-.129.74.74,0,0,0-.426.109.814.814,0,0,0-.253.387m1.4.852c-.136.041-.347.1-.633.158a1.758,1.758,0,0,0-.566.181.453.453,0,0,0-.2.368.505.505,0,0,0,.158.381.585.585,0,0,0,.412.156.829.829,0,0,0,.537-.184.615.615,0,0,0,.251-.346,1.98,1.98,0,0,0,.044-.511Zm2.039-.786V29.544h1.036v1.893l.509-.43v.714l-.509.428V35h-1.036V33.027l-.513.44v-.708Zm1.852.649a2.257,2.257,0,0,1,.257-1.008,1.764,1.764,0,0,1,.72-.748,2.169,2.169,0,0,1,1.048-.253,1.967,1.967,0,0,1,1.453.577,2.05,2.05,0,0,1,.574,1.485,2.086,2.086,0,0,1-.574,1.481,1.939,1.939,0,0,1-1.447.586,2.256,2.256,0,0,1-1.028-.243,1.72,1.72,0,0,1-.746-.726,2.488,2.488,0,0,1-.257-1.151m1.075.053a1.325,1.325,0,0,0,.269.9.909.909,0,0,0,1.365,0,1.3,1.3,0,0,0,.282-.9,1.284,1.284,0,0,0-.282-.9.9.9,0,0,0-1.365,0,1.3,1.3,0,0,0-.269.9M134.61,35V34.2l1.473-1.709c.238-.274.414-.468.531-.593a4.668,4.668,0,0,1-.477.019l-1.384.009v-.864h3.242V31.8l-1.5,1.74-.524.577c.289-.016.457-.028.533-.028h1.6V35Zm1.2-5.552h1.01v1h-1.01Zm5.265,4.3,1.036.178a1.666,1.666,0,0,1-.631.861,1.788,1.788,0,0,1-1.089.306,1.726,1.726,0,0,1-1.5-.667,2.287,2.287,0,0,1-.388-1.366,2.231,2.231,0,0,1,.508-1.541,1.669,1.669,0,0,1,1.286-.555,1.739,1.739,0,0,1,1.381.577,2.6,2.6,0,0,1,.488,1.79h-2.6a1.121,1.121,0,0,0,.247.73.821.821,0,0,0,.6.253.648.648,0,0,0,.416-.131.916.916,0,0,0,.249-.434m.057-1.06A1.055,1.055,0,0,0,140.9,32a.719.719,0,0,0-.541-.238.691.691,0,0,0-.554.25.961.961,0,0,0-.226.677ZM146.578,35h-1.041V32.993a3.583,3.583,0,0,0-.064-.836.611.611,0,0,0-.216-.284.618.618,0,0,0-.36-.109.821.821,0,0,0-.477.15.727.727,0,0,0-.307.393,3.647,3.647,0,0,0-.074.917V35H143V31.059h.964v.574a1.575,1.575,0,0,1,1.293-.667,1.444,1.444,0,0,1,.627.128,1.057,1.057,0,0,1,.432.306,1.421,1.421,0,0,1,.2.446,3.208,3.208,0,0,1,.063.7Zm1.044-5.461h1.042v.979h-1.042Zm0,1.516h1.042V35h-1.042Zm2.876,1.2-.948-.171a1.61,1.61,0,0,1,.553-.854,2.072,2.072,0,0,1,1.154-.268,2.568,2.568,0,0,1,1.036.162,1.1,1.1,0,0,1,.479.421,2.273,2.273,0,0,1,.131.932l-.013,1.232a4.616,4.616,0,0,0,.049.764,2.22,2.22,0,0,0,.186.528H152.1c-.024-.075-.058-.172-.1-.309a.519.519,0,0,0-.038-.118,2.066,2.066,0,0,1-.564.39,1.667,1.667,0,0,1-.646.128,1.325,1.325,0,0,1-.953-.333,1.125,1.125,0,0,1-.354-.83,1.172,1.172,0,0,1,.169-.608,1.059,1.059,0,0,1,.441-.393,3.434,3.434,0,0,1,.825-.246,5.09,5.09,0,0,0,1-.256v-.1a.514.514,0,0,0-.146-.433.865.865,0,0,0-.556-.129.733.733,0,0,0-.423.109.751.751,0,0,0-.257.387m1.382.852c-.13.041-.343.1-.623.158a1.844,1.844,0,0,0-.569.181.443.443,0,0,0-.2.368.518.518,0,0,0,.157.381.609.609,0,0,0,.421.156.837.837,0,0,0,.53-.184.59.59,0,0,0,.248-.346,2.241,2.241,0,0,0,.034-.511ZM158.46,35h-1.04V31.059a3.476,3.476,0,0,1-1.334.8V30.9a3.043,3.043,0,0,0,.875-.5,1.908,1.908,0,0,0,.657-.876h.843Zm1.57-1.257,1-.118a.752.752,0,0,0,.19.465.605.605,0,0,0,.414.146.691.691,0,0,0,.549-.3,2.549,2.549,0,0,0,.285-1.238,1.248,1.248,0,0,1-.974.458,1.433,1.433,0,0,1-1.106-.5,1.783,1.783,0,0,1-.457-1.294,1.847,1.847,0,0,1,.481-1.338,1.639,1.639,0,0,1,1.245-.511,1.7,1.7,0,0,1,1.357.639,3.417,3.417,0,0,1,.523,2.127,3.374,3.374,0,0,1-.551,2.149,1.773,1.773,0,0,1-1.434.664,1.5,1.5,0,0,1-1.031-.343,1.677,1.677,0,0,1-.494-1.014m2.346-2.289a1.146,1.146,0,0,0-.232-.776.656.656,0,0,0-.529-.291.639.639,0,0,0-.482.231,1.571,1.571,0,0,0,.021,1.526.629.629,0,0,0,.508.246.613.613,0,0,0,.508-.237,1.051,1.051,0,0,0,.2-.7m1.857,2.289,1.01-.118a.666.666,0,0,0,.192.465.564.564,0,0,0,.4.146.643.643,0,0,0,.538-.3,2.467,2.467,0,0,0,.3-1.238,1.235,1.235,0,0,1-.984.458,1.42,1.42,0,0,1-1.094-.5,2.05,2.05,0,0,1,.026-2.632,1.622,1.622,0,0,1,1.243-.511,1.688,1.688,0,0,1,1.35.639,3.362,3.362,0,0,1,.524,2.127,3.359,3.359,0,0,1-.547,2.149,1.762,1.762,0,0,1-1.439.664,1.451,1.451,0,0,1-1.018-.343,1.639,1.639,0,0,1-.5-1.014m2.347-2.289a1.151,1.151,0,0,0-.228-.776.677.677,0,0,0-.538-.291.648.648,0,0,0-.482.231,1.2,1.2,0,0,0-.189.752,1.23,1.23,0,0,0,.206.774.662.662,0,0,0,.526.246.614.614,0,0,0,.5-.237,1.077,1.077,0,0,0,.2-.7m5.333,2.576V35h-3.635a2.594,2.594,0,0,1,.357-1.042A7.161,7.161,0,0,1,169.8,32.65a7.015,7.015,0,0,0,.86-.889,1.174,1.174,0,0,0,.216-.645.707.707,0,0,0-.19-.53.657.657,0,0,0-.511-.193.646.646,0,0,0-.515.206.975.975,0,0,0-.226.655l-1.033-.106a1.73,1.73,0,0,1,.573-1.241,2,2,0,0,1,1.226-.38,1.786,1.786,0,0,1,1.26.44,1.452,1.452,0,0,1,.452,1.085,1.921,1.921,0,0,1-.126.7,3.023,3.023,0,0,1-.416.7,7.169,7.169,0,0,1-.685.692c-.328.308-.527.5-.621.611a2.049,2.049,0,0,0-.21.287Z" transform="translate(-8.545 -2.186)" fill="#002644"/>
      </g>
   </g>
</svg>
