<?xml version="1.0" encoding="UTF-8"?>
<!DOCTYPE svg PUBLIC "-//W3C//DTD SVG 1.1//EN" "http://www.w3.org/Graphics/SVG/1.1/DTD/svg11.dtd">
<!-- Creator: CorelDRAW -->
<svg xmlns="http://www.w3.org/2000/svg" xml:space="preserve" width="210mm" height="145mm" version="1.1" style="shape-rendering:geometricPrecision; text-rendering:geometricPrecision; image-rendering:optimizeQuality; fill-rule:evenodd; clip-rule:evenodd"
viewBox="0 0 21000 14500"
 xmlns:xlink="http://www.w3.org/1999/xlink"
 xmlns:xodm="http://www.corel.com/coreldraw/odm/2003">
 <defs>
  <style type="text/css">
   <![CDATA[
    .fil0 {fill:#DB1F2C}
    .fil3 {fill:#1C3458}
    .fil2 {fill:#DB1F2C;fill-rule:nonzero}
    .fil1 {fill:#1C3458;fill-rule:nonzero}
   ]]>
  </style>
 </defs>
 <g id="Layer_x0020_1">
  <metadata id="CorelCorpID_0Corel-Layer"/>
  <g id="_2533163507856">
   <polygon class="fil0" points="16244.12,8275.43 16843.16,8275.43 16843.16,8874.33 16244.12,8874.33 "/>
   <path class="fil1" d="M2157.99 5620.46c-279.66,0 -533.16,113.76 -716.76,297.37 -183.69,183.69 -297.43,437.3 -297.43,716.83l0 1755.35 318.22 0 0 -1015.12 70.01 0 9.84 11.27c0.65,0.74 222.72,260.64 612.28,262.81l0 -0.13 3.84 0c279.53,0 533.14,-113.74 716.82,-297.43 183.61,-183.6 297.37,-437.09 297.37,-716.75 0,-279.46 -113.82,-533.01 -297.5,-716.7 -183.68,-183.68 -437.24,-297.5 -716.69,-297.5zm-763.1 251.04c195.46,-195.47 465.34,-316.58 763.1,-316.58 297.54,0 567.48,121.17 763.03,316.71 195.53,195.54 316.7,465.47 316.7,763.03 0,297.75 -121.11,567.63 -316.57,763.09 -195.55,195.55 -465.55,316.63 -763.16,316.63l-3.84 0 -0.13 -0.13c-327.12,-1.78 -545.67,-173.55 -626.46,-249.57l0 990.87 -449.3 0 0 -1820.89c0,-297.62 121.08,-567.62 316.63,-763.16zm763.1 1459.13c-191.87,0 -365.87,-78.07 -491.88,-204.09 -126.03,-126.02 -204.09,-300.03 -204.09,-491.88 0,-191.75 78.08,-365.59 204.13,-491.54 126.04,-125.93 300.02,-203.89 491.84,-203.89 191.81,0 365.8,77.96 491.83,203.89 126.05,125.95 204.14,299.79 204.14,491.54 0,191.86 -78.07,365.86 -204.08,491.88 -126.03,126.02 -300.03,204.09 -491.89,204.09zm-445.55 -250.43c114.16,114.16 271.78,184.89 445.55,184.89 173.77,0 331.38,-70.73 445.55,-184.89 114.15,-114.15 184.88,-271.77 184.88,-445.54 0,-173.81 -70.64,-331.26 -184.68,-445.2 -114.17,-114.07 -271.85,-184.69 -445.75,-184.69 -173.9,0 -331.58,70.61 -445.75,184.69 -114.04,113.94 -184.68,271.39 -184.68,445.2 0,173.77 70.71,331.38 184.88,445.54zm1812.96 -722.79l0 1269.48 318.22 0 0 -1269.48c0,-114.41 46.71,-218.31 122.12,-293.62 68.07,-67.97 159.52,-112.57 261.08,-120.53l0 -319.31c-189.32,8.37 -360.32,88.86 -486.06,214.61 -132.96,132.97 -215.36,316.53 -215.36,518.85zm-65.54 1302.25l0 -1302.25c0,-220.42 89.74,-420.36 234.56,-565.18 144.82,-144.82 344.76,-234.56 565.17,-234.56l32.77 0 0 449.85 -32.77 0c-96.69,0 -184.32,39.26 -247.76,102.6 -63.4,63.32 -102.67,150.82 -102.67,247.29l0 1335.02 -449.3 0 0 -32.77zm2028.42 -2038.65c-279.74,0 -533.29,113.69 -716.9,297.3 -183.61,183.61 -297.3,437.16 -297.3,716.9 0,279.57 113.67,533 297.23,716.47 183.6,183.5 437.17,297.16 716.97,297.16 279.57,0 533.2,-113.71 716.88,-297.29 183.56,-183.47 297.3,-436.85 297.3,-716.34 0,-279.66 -113.76,-533.16 -297.36,-716.77 -183.69,-183.68 -437.3,-297.43 -716.82,-297.43zm-763.24 250.96c195.47,-195.47 465.41,-316.5 763.24,-316.5 297.61,0 567.61,121.09 763.15,316.64 195.46,195.46 316.57,465.34 316.57,763.1 0,297.42 -121.18,567.2 -316.75,762.67 -195.55,195.44 -465.48,316.5 -762.97,316.5 -297.7,0 -567.58,-121 -763.05,-316.37 -195.59,-195.47 -316.69,-465.31 -316.69,-762.8 0,-297.83 121.03,-567.77 316.5,-763.24zm763.24 1458.66c-191.75,0 -365.69,-78.05 -491.7,-203.96 -126.13,-126.03 -204.27,-299.92 -204.27,-491.46 0,-191.87 78.07,-365.87 204.08,-491.89 126.02,-126.02 300.02,-204.09 491.89,-204.09 191.86,0 365.86,78.07 491.88,204.09 126.01,126.02 204.08,300.02 204.08,491.89 0,191.54 -78.14,365.43 -204.27,491.46 -126.01,125.91 -299.95,203.96 -491.69,203.96zm-445.62 -250.3c114.16,114.06 271.79,184.76 445.62,184.76 173.82,0 331.45,-70.7 445.61,-184.76 114.12,-114.02 184.82,-271.51 184.82,-445.12 0,-173.77 -70.73,-331.39 -184.89,-445.56 -114.15,-114.15 -271.78,-184.88 -445.54,-184.88 -173.77,0 -331.4,70.73 -445.55,184.88 -114.16,114.17 -184.89,271.79 -184.89,445.56 0,173.61 70.7,331.1 184.82,445.12z"/>
   <path class="fil1" d="M7792.46 5662.36l-526.5 0 0 -777.94 -383.75 0 0 1884.74c0,501.8 408.46,910.26 910.25,910.26l0 -383.76c-289.88,0 -526.5,-236.07 -526.5,-526.5l0 -722.49 526.5 0 0 -384.31zm298.66 695.05l0 1302.25 383.76 0 0 -1302.25c0,-210.82 171.83,-382.66 383.2,-382.66l0 -384.31c-422.73,0 -766.96,344.23 -766.96,766.97zm1995.64 -769.17c-577.56,0 -1046.96,469.41 -1046.96,1046.97 0,577 469.4,1046.4 1046.96,1046.4 1.1,0 2.75,0 4.4,0 404.61,-2.19 636.3,-273.95 636.3,-273.95l22.5 0 0 235.53 383.76 0 0 -1008.53c0,-577.01 -469.95,-1046.97 -1046.96,-1046.97l0 0.55zm0 1709.62c-365.64,0 -663.2,-297.56 -663.2,-662.65 0,-365.64 297.56,-663.21 663.2,-663.21 365.65,0 663.2,297.57 663.2,663.21 0,365.09 -297.55,662.65 -663.2,662.65zm2404.66 -1689.85c-577.55,0 -1046.95,469.4 -1046.95,1046.96l0 1007.98 383.75 0 0 -1007.98c0,-365.64 297.56,-663.2 663.2,-663.2 365.64,0 663.21,297.56 663.21,663.2l0 1007.98 383.75 0 0 -1007.98c0,-577.56 -469.4,-1046.96 -1046.96,-1046.96l0 0zm2636.89 853.16l-631.91 -18.12c-77.95,-3.29 -259.68,-29.1 -259.68,-197.64 0,-67.53 0,-273.41 555.05,-273.41 555.05,0 555.05,205.88 555.05,273.41l384.3 0c0,-197.65 -91.68,-657.17 -939.35,-657.17 -847.67,0 -938.81,459.52 -938.81,657.17 0,383.2 315.13,568.22 629.72,581.4l624.77 17.56c266.82,21.41 266.82,128.47 266.82,180.08 0,67.53 0,273.41 -553.95,273.41l-53.25 0c-553.96,0 -553.96,-205.88 -553.96,-273.41l-383.75 0c0,197.09 91.14,657.16 937.71,657.16l53.25 0c846.57,-0.54 937.71,-460.07 937.71,-657.16 0,-321.17 -231.69,-531.44 -629.72,-563.28l0 0z"/>
   <path class="fil2" d="M11324.08 9300.64c-94.12,0 -180.1,-22.62 -257.93,-67.87 -77.83,-45.25 -139.37,-106.79 -184.62,-184.62 -45.25,-77.83 -67.87,-163.2 -67.87,-256.12 0,-94.12 22.62,-180.09 67.87,-257.92 45.25,-77.83 106.79,-139.37 184.62,-184.62 77.83,-45.25 163.81,-67.87 257.93,-67.87 77.22,0 149.32,15.38 216.29,46.15 66.97,30.77 122.48,73.91 166.52,129.41 44.04,55.51 72.7,118.86 85.97,190.05l-141.17 0c-19.31,-71.19 -59.13,-128.51 -119.46,-171.95 -60.34,-43.44 -129.72,-65.16 -208.15,-65.16 -68.78,0 -132.13,16.9 -190.05,50.68 -57.92,33.79 -103.47,79.64 -136.66,137.56 -33.18,57.92 -49.77,122.48 -49.77,193.67 0,69.99 16.59,133.94 49.77,191.86 33.19,57.92 78.74,103.77 136.66,137.56 57.92,33.79 121.27,50.68 190.05,50.68 77.22,0 146.3,-21.72 207.24,-65.16 60.94,-43.44 101.06,-100.15 120.37,-170.14l141.17 0c-13.27,71.19 -42.23,134.54 -86.88,190.05 -44.64,55.51 -100.15,98.34 -166.51,128.51 -66.37,30.17 -138.17,45.25 -215.39,45.25zm1469.7 -184.62c-44.64,57.92 -99.85,103.17 -165.61,135.75 -65.76,32.58 -137.86,48.87 -216.29,48.87 -94.12,0 -179.19,-22.62 -255.21,-67.87 -76.02,-45.25 -136.05,-106.49 -180.1,-183.72 -44.04,-77.22 -66.06,-162.9 -66.06,-257.02 0,-94.12 22.02,-180.09 66.06,-257.92 44.05,-77.83 104.08,-139.37 180.1,-184.62 76.02,-45.25 161.09,-67.87 255.21,-67.87 78.43,0 150.53,16.59 216.29,49.77 65.76,33.18 120.97,78.73 165.61,136.65l0 -166.51 135.75 0 0 979.2 -135.75 0 0 -164.71zm-372.85 56.11c68.78,0 131.82,-16.59 189.14,-49.77 57.32,-33.19 102.27,-78.74 134.85,-136.66 32.57,-57.92 48.86,-122.47 48.86,-193.67 0,-71.19 -16.29,-136.05 -48.86,-194.57 -32.58,-58.52 -77.53,-104.38 -134.85,-137.56 -57.32,-33.18 -120.36,-49.78 -189.14,-49.78 -69.99,0 -133.34,16.6 -190.05,49.78 -56.72,33.18 -101.66,78.73 -134.85,136.65 -33.18,57.92 -49.77,123.08 -49.77,195.48 0,71.2 16.59,135.75 49.77,193.67 33.19,57.92 78.13,103.47 134.85,136.66 56.71,33.18 120.06,49.77 190.05,49.77zm778.29 -870.6l133.94 0 0 164.7c34.99,-57.92 80.84,-103.47 137.56,-136.65 56.71,-33.18 118.85,-49.77 186.43,-49.77 28.96,0 53.69,3.01 74.21,9.05l0 124.88 -76.02 0c-92.92,0 -169.54,28.96 -229.87,86.88 -60.33,57.92 -90.5,138.77 -90.5,242.54l0 537.57 -135.75 0 0 -979.2zm966.54 801.82c-49.48,0 -97.74,-8.45 -144.8,-25.34l-146.61 208.15 421.73 0c101.36,0 179.49,28.66 234.39,85.97 54.9,57.32 82.35,138.47 82.35,243.45l-135.74 0c0,-61.54 -17.5,-109.81 -52.49,-144.8 -35,-34.99 -86.88,-52.49 -155.66,-52.49l-553.86 0 0 -132.13 188.24 -275.12c-44.65,-37.4 -79.64,-83.56 -104.98,-138.46 -25.34,-54.91 -38.01,-115.54 -38.01,-181.91 0,-76.02 18.1,-145.4 54.3,-208.15 36.2,-62.74 85.37,-112.21 147.51,-148.41 62.15,-36.2 130.62,-54.3 205.44,-54.3 77.22,0 148.42,19.3 213.58,57.92l124.89 -164.71 108.59 79.64 -130.31 173.75c61.54,77.23 92.3,165.32 92.3,264.26 0,76.02 -18.09,145.41 -54.29,208.15 -36.2,62.75 -85.98,112.52 -149.33,149.33 -63.35,36.8 -132.43,55.2 -207.24,55.2zm1.81 -130.32c50.68,0 97.13,-12.67 139.37,-38.01 42.23,-25.34 75.71,-59.73 100.45,-103.17 24.74,-43.44 37.11,-90.5 37.11,-141.18 0,-50.68 -12.37,-97.43 -37.11,-140.27 -24.74,-42.84 -58.22,-76.93 -100.45,-102.27 -42.24,-25.34 -88.69,-38.01 -139.37,-38.01 -50.68,0 -97.14,12.67 -139.37,38.01 -42.24,25.34 -75.42,59.43 -99.55,102.27 -24.13,42.84 -36.2,89.59 -36.2,140.27 0,53.1 12.07,101.06 36.2,143.9 24.13,42.83 57.31,76.62 99.55,101.36 42.23,24.73 88.69,37.1 139.37,37.1zm1073.32 327.61c-94.12,0 -180.1,-22.62 -257.93,-67.87 -77.83,-45.25 -139.37,-106.79 -184.62,-184.62 -45.25,-77.83 -67.87,-163.2 -67.87,-256.12 0,-94.12 22.62,-180.09 67.87,-257.92 45.25,-77.83 106.79,-139.37 184.62,-184.62 77.83,-45.25 163.81,-67.87 257.93,-67.87 92.91,0 178.28,22.62 256.11,67.87 77.83,45.25 139.37,106.79 184.62,184.62 45.25,77.83 67.87,163.8 67.87,257.92 0,92.92 -22.62,178.29 -67.87,256.12 -45.25,77.83 -106.79,139.37 -184.62,184.62 -77.83,45.25 -163.2,67.87 -256.11,67.87zm0 -128.51c68.78,0 131.52,-16.89 188.24,-50.68 56.71,-33.79 101.66,-79.64 134.84,-137.56 33.18,-57.92 49.77,-121.87 49.77,-191.86 0,-69.98 -16.59,-134.24 -49.77,-192.76 -33.18,-58.52 -78.43,-104.38 -135.75,-137.56 -57.32,-33.18 -120.36,-49.78 -189.14,-49.78 -68.78,0 -131.83,16.6 -189.15,49.78 -57.31,33.18 -102.26,78.73 -134.84,136.65 -32.58,57.92 -48.87,122.48 -48.87,193.67 0,69.99 16.59,133.94 49.77,191.86 33.19,57.92 78.44,103.77 135.75,137.56 57.32,33.79 120.37,50.68 189.15,50.68z"/>
   <g>
    <path class="fil3" d="M4815.07 6813.77c-4.73,-19.37 -6.76,-33.13 -7.53,-38.31 -1.14,-8.76 -2.02,-17.21 -0.62,-19.72 7.44,0.91 21.87,84.51 19.47,90.04 -0.24,-0.02 -0.55,-0.04 -0.78,-0.05 -3.59,-4.39 -8.97,-25.57 -10.54,-31.96z"/>
    <path class="fil3" d="M4867.39 6669.94c9.6,-25.21 22.73,-18.61 28.99,-5.87 13.72,27.89 2.73,77.9 -15.89,72.3 -7.64,-2.29 -14.14,-14.8 -16.17,-31.11 -2.24,-17.98 1.75,-31.03 3.07,-35.32z"/>
    <path class="fil3" d="M4866.35 6505.23c2.9,-16.57 9.7,-28.48 11.94,-32.4 13.96,-21.82 22.9,-16.89 25.5,-8.25 7.5,24.88 -18.63,79.27 -33.28,69.27 -4.96,-3.39 -6.6,-14.62 -4.16,-28.62z"/>
    <path class="fil3" d="M4878.59 6931.29c-4.94,-0.14 -14.01,-12.83 -21.57,-30.17 -7.83,-17.97 -10.18,-31.49 -10.96,-35.94 -3.23,-24.74 5.84,-18.16 7.69,-16.59 16.84,14.28 37.5,83.07 24.84,82.7z"/>
    <path class="fil3" d="M4867.9 6836.12c-6.7,-0.44 -15.03,-13.54 -19.84,-31.15 -4.95,-18.19 -3.98,-31.64 -3.66,-36.05 3.22,-24.76 13.74,-18.88 18.86,-12.32 17.02,21.84 20.44,80.55 4.64,79.52z"/>
    <path class="fil3" d="M4831 6639.11c-4.93,-2.19 -7.77,-15.01 -7.07,-31.9 0.76,-18.38 5.13,-31.65 6.57,-36.01 10.12,-26.74 17.17,-15.3 17.95,-13.91 11.07,19.99 -3.44,88.05 -17.45,81.82z"/>
    <path class="fil3" d="M4834.91 6881.45l-9.19 -27.51c3.63,10.91 17.76,48.59 27.78,72.68 2.16,4.94 4.24,9.71 6.13,14.12 -1.69,-3.63 -3.8,-8.51 -6.13,-14.12 -6.54,-14.93 -13.79,-31.53 -18.59,-45.17z"/>
    <path class="fil3" d="M4871.68 6956.66c-7.34,-18.04 -4.96,-19.29 -2.9,-18.42 10.01,4.16 50.18,77.38 44.78,81.61 -2.31,1.8 -12.66,-10.63 -23.56,-28.31 -10.62,-17.22 -16.21,-30.05 -18.32,-34.88z"/>
    <path class="fil3" d="M4929.36 6936.52c22.55,16.12 45.47,71.88 30.66,74.58 -7.12,1.3 -20.7,-10.78 -31.58,-28.08 -10.43,-16.59 -12.93,-28.62 -13.87,-33.15 -2.91,-20.97 7.93,-18.27 14.79,-13.35z"/>
    <path class="fil3" d="M4912.24 6860.58c3.02,-22.15 17.56,-20.23 29.29,-5.76 20.09,24.8 23.43,70.84 5.02,69.39 -8.91,-0.71 -20.59,-13.22 -27.76,-29.76 -7.46,-17.17 -6.78,-29.74 -6.55,-33.87z"/>
    <path class="fil3" d="M4943.1 7017.44c19.35,8.25 62.72,69.6 51.56,72.94 -4.41,1.31 -18.09,-7.94 -33.35,-25.69 -13.31,-15.49 -19.04,-27.09 -21.19,-31.46 -8.48,-19.45 0.13,-17.01 2.98,-15.79z"/>
    <path class="fil3" d="M4979.65 7092.93c9.81,-0.24 73.38,60.19 70.13,66.65 -1.45,2.87 -16.27,-5.5 -35.25,-22.09 -15.77,-13.79 -24.96,-25.07 -27.98,-28.77 -9.94,-12.95 -9.24,-15.74 -6.9,-15.79z"/>
    <path class="fil3" d="M5225.44 6894.2c5.6,29.25 -18.43,49.42 -41.48,34.82 -8.47,-5.37 -15.19,-14.73 -17.96,-25.05 -4.2,-15.55 1.63,-25.44 3.82,-29.16 17.87,-23.67 50.35,-8.15 55.62,19.39z"/>
    <path class="fil3" d="M5216.28 6624.95c0.43,-15.31 10.28,-25.07 13.52,-28.28 26.79,-22.21 56.82,-5.88 55.45,21.15 -1.63,32.24 -41.97,50.72 -61.66,28.24 -4.86,-5.53 -7.52,-13.23 -7.31,-21.11z"/>
    <path class="fil3" d="M5140.41 6738.85c-3.91,-3.37 -10.62,-10.96 -11.63,-24.02 -1.24,-16.04 7.22,-26.6 10,-30.07 23.7,-24.39 55.35,-8.78 56.37,19.7 1.13,31.43 -33.15,52.96 -54.74,34.39z"/>
    <path class="fil3" d="M5191.93 6504.54c-3.4,32.57 -44.17,53.13 -61.43,30.99 -4.21,-5.39 -6.19,-13.07 -5.43,-21.06 1.47,-15.47 11.41,-25.51 14.69,-28.81 27,-23.18 55,-8.1 52.17,18.88z"/>
    <path class="fil3" d="M5125.52 6955.69c10.38,-23.19 39.91,-11.12 51.35,14.26 11.09,24.6 1.81,50.26 -21.55,41.6 -10.54,-3.91 -21.08,-14.43 -26.86,-26.8 -7.14,-15.27 -4.09,-25.29 -2.94,-29.06z"/>
    <path class="fil3" d="M5173.55 7152.96c-8.23,1.66 -27.66,-9.03 -42.43,-23.34 -13.7,-13.25 -16.89,-22.61 -18.09,-26.12 -3.8,-16.89 11.74,-13.28 22.44,-7.04 23.76,13.87 53.11,53.49 38.08,56.5z"/>
    <path class="fil3" d="M5149.99 7038.92c17.7,21.57 22.15,50.54 2.69,47.97 -10.71,-1.41 -25.6,-12.42 -35.42,-26.18 -10.37,-14.52 -10.37,-24.37 -10.37,-28.08 2.61,-20.63 26.49,-13.95 43.1,6.29z"/>
    <path class="fil3" d="M5081.08 6831.54c-8.14,-5.39 -14.4,-15.15 -16.75,-26.1 -3.52,-16.41 2.68,-27.56 4.71,-31.22 17.39,-24.89 46.48,-12.42 53.08,14.79 7.71,31.82 -17.61,58.05 -41.04,42.53z"/>
    <path class="fil3" d="M5050.11 6635.21c-7.06,-5.4 -11.28,-15.22 -11.29,-26.27 0,-16.37 8.46,-27.47 11.25,-31.12 22.36,-24.72 48.65,-12.57 50.29,14.63 1.92,31.79 -29.54,58.56 -50.25,42.76z"/>
    <path class="fil3" d="M5071.38 6872.68c13.42,28.96 0.91,58.51 -21.23,50.2 -10.15,-3.81 -20,-14.93 -25.11,-28.33 -6.24,-16.4 -2.91,-27.47 -1.66,-31.64 10.3,-24.32 36.61,-14.81 48,9.77z"/>
    <path class="fil3" d="M5060.3 7085.37c-8.67,0.78 -24.91,-10.39 -37.77,-25.97 -12.42,-15.05 -15.21,-25.83 -16.26,-29.89 -3.21,-19.45 10.89,-16.28 21.14,-9.41 26.01,17.43 49.38,63.79 32.89,65.27z"/>
    <path class="fil3" d="M5041.47 6950.51c18.72,23.68 23.4,59.68 2.97,57.59 -10.29,-1.05 -24.19,-12.9 -33.06,-28.16 -9.27,-15.97 -8.92,-27.05 -8.78,-31.23 3.09,-22.33 23.79,-17.27 38.87,1.8z"/>
    <path class="fil3" d="M5032.81 7103.26c-8.58,-17.08 2.49,-14.51 6.09,-13.31 22.6,7.52 70.07,58.56 59.07,63.5 -5.06,2.27 -22.95,-6.28 -41.53,-22.64 -15.42,-13.58 -21.39,-23.73 -23.63,-27.55z"/>
    <path class="fil3" d="M5075.36 7154.99c14.27,0.41 85.12,51.23 78.16,56.05 -3.23,2.24 -22.57,-5.32 -43.61,-18.8 -18.05,-11.56 -27.06,-20.73 -30.44,-24.18 -9.88,-10.99 -7.69,-13.18 -4.11,-13.07z"/>
    <path class="fil3" d="M5141.94 7166.24c-7.97,-12.53 0.68,-11.93 4.78,-11.08 20.93,4.3 75.57,47.82 67.2,53.52 -4.04,2.75 -25.61,-5.25 -46.33,-19.3 -16.88,-11.45 -23.25,-19.94 -25.65,-23.14z"/>
    <path class="fil3" d="M5186.01 7208.98c11.14,-1.08 90.03,39.16 86.14,43.94 -1.82,2.23 -24.5,-3.54 -49.02,-14.86 -19.66,-9.08 -29.05,-16.35 -32.58,-19.09 -7.25,-6.22 -8.78,-9.57 -4.54,-9.99z"/>
    <path class="fil3" d="M5239.72 6841.72c-5.41,-5.54 -9.01,-13.21 -9.87,-21.06 -1.7,-15.4 6.61,-25.24 9.34,-28.47 24.85,-24.01 57.06,-4.9 56.02,24.62 -1.09,30.98 -34.8,46.11 -55.49,24.91z"/>
    <path class="fil3" d="M5294.41 6419.21c-4.44,29.13 -45.25,45.97 -61.5,25.38 -3.96,-5.01 -5.58,-11.94 -4.44,-19 2.18,-13.54 12.5,-22.07 15.88,-24.87 27.47,-19.36 53.69,-5.29 50.06,18.49z"/>
    <path class="fil3" d="M5209.66 6188.9c-2.43,-4.15 -0.34,-9.26 1.12,-11.93 4.7,-8.61 14.11,-14.33 17.2,-16.21 21.76,-11.77 37.28,-6.5 34.26,5.9 -4.7,19.26 -44.51,36.09 -52.58,22.24z"/>
    <path class="fil3" d="M5232.82 6104.01c-5.39,14.67 -42.93,33.14 -47.26,23.25 -0.62,-1.4 -0.84,-4.63 4.55,-10.52 6.32,-6.91 15.21,-11.74 18.13,-13.33 18.18,-9.1 27.39,-7.03 24.58,0.6z"/>
    <path class="fil3" d="M5216.28 6316.21c-4.38,26.65 -46.82,46.48 -59.76,27.91 -2.98,-4.28 -3.63,-10.39 -1.78,-16.74 3.53,-12.12 13.76,-20.09 17.12,-22.71 25.86,-17.55 47.64,-8.08 44.42,11.54z"/>
    <path class="fil3" d="M5161.26 6227.8c-3.32,22.7 -43.58,46.85 -53.86,32.31 -1.51,-2.16 -3.41,-7.09 0.96,-15.97 5.2,-10.58 14.99,-17.83 18.21,-20.21 21.62,-14.37 36.66,-9.63 34.69,3.87z"/>
    <path class="fil3" d="M5138.89 6156.42c-4.56,17.4 -43.65,43.49 -49.79,33.25 -1.66,-2.78 0.29,-8.17 5.22,-14.41 7.05,-8.94 16.47,-15.32 19.57,-17.42 18.46,-11.58 27.2,-9.81 25,-1.42z"/>
    <path class="fil3" d="M5114.45 6393.79c-1.05,30.15 -40.27,57.51 -55.95,39.03 -2.47,-2.91 -6.21,-9.52 -3.62,-21.23 3.12,-14.08 12.87,-23.59 16.07,-26.72 24.93,-21.26 44.16,-9.81 43.5,8.92z"/>
    <path class="fil3" d="M5013.13 6342.3c-3.51,-3.98 -3.5,-11.55 0.02,-20.25 5.11,-12.6 14.63,-21.43 17.75,-24.34 20.39,-17.04 34.02,-13.07 33.49,1.17 -0.91,24.59 -39.23,57.05 -51.26,43.42z"/>
    <path class="fil3" d="M4990.22 6733.57c-8.38,-4.83 -14.32,-15.44 -15.9,-28.37 -2.07,-17.01 4.29,-28.86 6.37,-32.75 16.43,-25.1 40.57,-15.58 46.6,9.86 7.46,31.46 -15.75,63.56 -37.07,51.26z"/>
    <path class="fil3" d="M4975.31 6772.4c13.15,30.96 0.53,66.85 -20.47,58.18 -8.89,-3.68 -17.08,-15.24 -20.86,-29.46 -4.6,-17.3 -0.89,-29.66 0.33,-33.72 9.96,-24.96 31.23,-17.99 41,5z"/>
    <path class="fil3" d="M4932.53 6434.12c-4.46,-3.98 -5.1,-13.15 -1.72,-24.54 4.35,-14.63 12.88,-25.03 15.68,-28.45 17.57,-19.3 29.62,-16.13 30.7,-2.13 1.99,25.75 -31.4,66.96 -44.66,55.12z"/>
    <path class="fil3" d="M4951.05 6572.15c7.54,30.93 -14.24,71.5 -33.31,62.02 -7.5,-3.73 -12.28,-15.48 -12.16,-29.95 0.13,-17.39 6.71,-29.76 8.87,-33.83 14.64,-23.48 31.69,-18.33 36.6,1.76z"/>
    <path class="fil3" d="M4968.09 7100.17c-4.19,-2.91 -16.28,-17.07 -22.77,-24.97l-3.78 -4.63 -15.01 -19.31c-3.54,-4.75 -4.18,-5.63 -7.25,-9.88 -5.19,-7.35 -10.59,-15.22 -11.26,-17.85 4.27,-0.38 60.3,75.76 60.55,76.55 -0.15,0.03 -0.34,0.06 -0.48,0.09z"/>
    <path class="fil3" d="M5018.15 7150.84c-6.1,-5.84 -13.06,-12.48 -20.11,-19.3 -10.73,-10.2 -21.25,-20.58 -28.65,-28.65 8.29,8.76 18.57,18.9 28.65,28.65 11.96,11.37 24.13,22.45 32.58,29.91l10.07 8.56c-1.64,-1.24 -5.28,-4.34 -10.07,-8.56l-12.47 -10.61z"/>
    <path class="fil3" d="M5084.08 7199.67c-17.47,-11.51 -29.71,-21.72 -33.73,-25.08 -6.71,-5.79 -13.54,-12.02 -13.37,-14.18 3.77,-1.7 83.56,53.94 82.89,57.79 -2.64,1.03 -18.69,-7.28 -35.79,-18.53z"/>
    <path class="fil3" d="M5178.62 7241.97c-20.01,-9 -31.74,-16.83 -36.15,-19.78 -9.3,-6.61 -12.8,-10.39 -10.39,-11.24 6.51,-2.31 93.39,40.29 92.04,45.13 -3.6,1.78 -24.86,-4.81 -45.5,-14.11z"/>
    <path class="fil3" d="M5344.67 7283.75c-4.99,0.77 -29.08,-3.43 -51.5,-9.8 -21.79,-6.19 -33.84,-11.84 -38.38,-13.96 -6.39,-3.25 -10.13,-5.49 -10.28,-7.33 4.82,-4.62 99.56,29.99 100.32,30.53 -0.05,0.17 -0.11,0.4 -0.16,0.56z"/>
    <path class="fil3" d="M5321.49 6758.31c-4.79,-5.59 -7.51,-13.18 -7.48,-20.83 0.07,-14.93 9.44,-24.07 12.52,-27.07 25.95,-20.91 55.2,-3.72 53.97,22.87 -1.46,31.66 -39.51,47.8 -59.01,25.03z"/>
    <path class="fil3" d="M5384.92 6534.48c-3.06,29.98 -43.8,45.95 -61.41,24.07 -4.36,-5.43 -6.48,-12.8 -5.79,-20.23 1.33,-14.38 11.38,-23.15 14.68,-26.03 26.88,-19.63 55.09,-3.05 52.52,22.19z"/>
    <path class="fil3" d="M5398.41 6346.11c-6.79,25.05 -46.15,35.22 -58.5,15.12 -2.59,-4.23 -3.45,-9.26 -2.47,-14.56 2.15,-11.65 11.77,-18.66 14.94,-20.97 26.71,-16.44 51.9,-1.29 46.03,20.41z"/>
    <path class="fil3" d="M5368.05 6190.72c2.43,-8.33 10.69,-13.35 13.41,-14.99 22.79,-11.77 42.56,-1.1 36.98,14.56 -6.82,19.2 -42.82,25.89 -50.02,9.31 -0.53,-1.23 -1.63,-4.55 -0.37,-8.88z"/>
    <path class="fil3" d="M5476.18 6658.15c-5.76,28.04 -42.7,39.59 -58.99,18.45 -4.27,-5.53 -6.37,-12.9 -5.77,-20.22 1.16,-14.22 10.89,-22.54 14.09,-25.27 27.75,-19.65 56.14,0.39 50.67,27.04z"/>
    <path class="fil3" d="M5487.99 6458.49c-5.72,26.2 -42.39,36.95 -57.7,16.92 -3.98,-5.2 -5.79,-12.08 -4.97,-18.86 1.57,-13.03 11.14,-20.51 14.28,-22.97 27.08,-17.59 53.7,0.55 48.39,24.91z"/>
    <path class="fil3" d="M5499.18 6279.91c-5.2,21.43 -40.38,28.7 -52.27,10.81 -2.47,-3.7 -3.38,-8.03 -2.65,-12.52 1.59,-9.84 10.01,-15.47 12.77,-17.32 23.34,-12.98 46.58,0.81 42.15,19.03z"/>
    <path class="fil3" d="M5678.98 6511.13c-5.26,24.23 -38.01,31.81 -51.53,11.93 -3.5,-5.16 -5.08,-11.78 -4.32,-18.16 1.46,-12.35 10.01,-18.9 12.81,-21.05 23.9,-14.91 47.97,4.6 43.04,27.28z"/>
    <path class="fil3" d="M5773.37 6446.99c-5.69,21.25 -34.59,23.87 -45.48,4.12 -2.4,-4.35 -3.46,-9.23 -3.08,-14.11 0.84,-10.78 8.03,-16.14 10.39,-17.9 21.28,-12.64 43.56,7.71 38.17,27.89z"/>
    <path class="fil3" d="M5974.94 6208.16c2.42,-0.29 20.16,18.84 19.37,20.88 -0.51,1.34 -8.56,-6.11 -14.85,-13.74 -3.59,-4.36 -4.29,-5.93 -4.52,-6.45 -0.12,-0.43 -0.13,-0.51 0,-0.69z"/>
    <path class="fil3" d="M5971.72 6238.54c3.11,-5.12 19.44,12.08 21.6,20.73 1.03,4.09 -1.3,5.1 -5.66,2.45 -4.66,-2.84 -10.43,-9.2 -13.73,-15.12 -2.98,-5.36 -2.41,-7.39 -2.21,-8.06z"/>
    <path class="fil3" d="M5944.15 6273.39c8.32,-7.01 26.15,13.01 25.07,24.08 -0.82,8.32 -11.36,6.33 -19.79,-3.73 -3.79,-4.51 -5.42,-8.74 -5.95,-10.35 -2.12,-6.49 -0.02,-9.13 0.67,-10z"/>
    <path class="fil3" d="M5893.62 6314.51c12.9,-8.47 32.11,12.11 28.94,26.07 -2.82,12.4 -19.44,10.49 -28.69,-3.29 -2.24,-3.33 -3.69,-6.96 -4.19,-10.49 -1.12,-7.78 2.68,-11.17 3.94,-12.29z"/>
    <path class="fil3" d="M5889.45 6136.89c0,0.06 -0.01,0.13 -0.02,0.19 -1.04,0.82 -10.04,-5.21 -16.66,-10.72 -4.05,-3.37 -4.86,-4.55 -5.12,-4.94 -0.06,-0.12 -0.12,-0.29 -0.12,-0.43 1.45,-1.29 21.52,13.27 21.92,15.9z"/>
    <path class="fil3" d="M5867.25 6144.86c2.84,-4.58 21.91,10.8 23.76,17.16 0.95,3.29 -2.34,3.43 -7.84,0.31 -4.59,-2.59 -9.68,-6.91 -12.97,-11 -3.44,-4.29 -3.07,-5.93 -2.95,-6.47z"/>
    <path class="fil3" d="M5843.09 6173.79c8.28,-6.43 28.29,12.06 26.76,20.54 -1.38,7.6 -16.44,2.31 -24.42,-8.57 -0.8,-1.09 -1.72,-2.58 -2.23,-3.64 -2.58,-5.36 -0.72,-7.59 -0.11,-8.33z"/>
    <path class="fil3" d="M5856.07 6390.22c-4.56,16.51 -27.09,16.37 -37.09,-0.23 -2.3,-3.83 -3.54,-8.06 -3.58,-12.24 -0.08,-9.21 5.47,-13.5 7.3,-14.92 17.77,-10.64 38.24,9.8 33.37,27.39z"/>
    <path class="fil3" d="M5796.03 6209.29c12.6,-7.68 32.74,9.37 30.51,21.66 -2.04,11.25 -20.58,8.98 -30.05,-3.69 -1.74,-2.32 -3.06,-5.03 -3.63,-7.42 -1.57,-6.61 2,-9.58 3.17,-10.55z"/>
    <path class="fil3" d="M5782.85 6087.02c0.8,2.45 -4.1,1.62 -10.67,-1.82 -3.47,-1.81 -7.05,-4.19 -9.58,-6.35 -3.6,-3.07 -3.49,-4.24 -3.46,-4.62 2.15,-3.68 22.52,9.07 23.71,12.79z"/>
    <path class="fil3" d="M5776.9 6069.04c-1.38,0.35 -11.77,-4.77 -16.58,-7.31 -4.28,-2.26 -5.24,-2.96 -5.61,-3.22 -0.08,-0.07 -0.18,-0.17 -0.24,-0.26 1.63,-0.41 21.97,9.38 22.43,10.79z"/>
    <path class="fil3" d="M5739.94 6095.79c7.22,-5.02 26.98,8.96 26.13,15.48 -0.87,6.63 -17.85,1.05 -24.88,-8.18 -0.2,-0.27 -0.46,-0.63 -0.65,-0.91 -2.69,-4.09 -1.12,-5.82 -0.6,-6.39z"/>
    <path class="fil3" d="M5763.02 6275.39c-3.83,15.36 -28.59,14.68 -38.41,-1.07 -0.8,-1.29 -2.7,-4.75 -2.96,-8.87 -0.48,-8.01 4.85,-11.87 6.6,-13.13 17.05,-9.56 38.59,7.74 34.77,23.07z"/>
    <path class="fil3" d="M5697.68 6124.31c12.07,-6.62 32.33,8.5 29.12,17.85 -3.24,9.49 -24.59,4.67 -30.87,-6.97 -0.36,-0.68 -0.77,-1.63 -1,-2.36 -1.6,-5.28 1.67,-7.72 2.75,-8.52z"/>
    <path class="fil3" d="M5682.61 6327.37c-4.7,18.8 -34.19,21.92 -45.73,4.82 -2.56,-3.79 -3.8,-8.09 -3.57,-12.43 0.5,-9.55 7.53,-14.48 9.85,-16.09 20.69,-11.6 43.91,5.82 39.45,23.7z"/>
    <path class="fil3" d="M5678.65 6036.2c0.53,1.24 -4.69,0.34 -12.23,-2.68 -1.98,-0.8 -3.96,-1.69 -5.57,-2.5 -3.47,-1.75 -3.67,-2.31 -3.75,-2.53 0.63,-1.74 20.56,5.39 21.55,7.71z"/>
    <path class="fil3" d="M5666.65 6027.12c0.05,0.01 0.14,0.04 0.19,0.05 -0.13,-0.02 -0.66,-0.15 -3.3,-0.84 -0.49,-0.13 -0.92,-0.24 -1.37,-0.36l-6.35 -1.63c2.24,0.56 4.05,1.03 6.35,1.63l4.48 1.15z"/>
    <path class="fil3" d="M5644.4 6041.13c6.34,-3.58 24.54,6.61 23.04,10.55 -1.51,4.01 -16.67,-0.34 -22.2,-6.38 -2.47,-2.68 -1.24,-3.8 -0.84,-4.17z"/>
    <path class="fil3" d="M5667.45 6179.15c-3.61,13.44 -29.66,12.46 -37.67,-1.42 -1.1,-1.92 -1.73,-3.9 -1.86,-5.9 -0.44,-6.64 4.63,-9.97 6.3,-11.06 16.03,-8.23 36.66,5.64 33.23,18.38z"/>
    <path class="fil3" d="M5608.3 6061.17c10.85,-5.01 28.43,5.44 25.48,12.55 -3.17,7.66 -23.41,3.67 -27.76,-5.47 -0.12,-0.25 -0.25,-0.59 -0.34,-0.85 -1.27,-3.82 1.66,-5.63 2.62,-6.23z"/>
    <path class="fil3" d="M5590.22 6225.22c-4.93,17.36 -35.82,19.91 -45.27,3.73 -0.75,-1.26 -2.43,-4.66 -2.08,-8.89 0.68,-8.16 7.52,-12.56 9.77,-14 20.31,-10.59 42.02,3.5 37.58,19.16z"/>
    <path class="fil3" d="M5584.37 6010.44l3.14 0.45c0.05,0.01 0.13,0.02 0.19,0.03 -0.33,-0.01 -1.8,-0.22 -4.74,-0.65 -1.93,-0.28 -3.45,-0.5 -5.23,-0.74l6.64 0.91z"/>
    <path class="fil3" d="M5565.39 6010.92c4.11,-1.19 18.91,2.77 17.99,4.82 -0.85,1.89 -12.4,-0.19 -17.15,-3.1 -1.93,-1.18 -1.14,-1.57 -0.84,-1.72z"/>
    <path class="fil3" d="M5579.38 6103.16c-4.17,11.59 -29.4,10.61 -34.61,-1.33 -0.43,-1.01 -0.73,-2.42 -0.73,-3.44 0.03,-5.14 4.79,-7.83 6.36,-8.71 14.64,-6.61 32.53,3.65 28.98,13.48z"/>
    <path class="fil3" d="M5536.69 6020.89c8.53,-2.77 21.43,2.45 19.8,6.69 -2.06,5.35 -19.62,3.39 -22.37,-2.51 -0.07,-0.14 -0.14,-0.35 -0.19,-0.5 -0.61,-2.25 1.93,-3.33 2.76,-3.68z"/>
    <path class="fil3" d="M5532.63 6383.36c1.25,-11.23 9.75,-17.37 12.55,-19.39 24.01,-14.19 48.48,2.52 44.27,23.4 -4.81,23.86 -40.86,30.85 -53.58,10.38 -2.69,-4.32 -3.81,-9.29 -3.24,-14.39z"/>
    <path class="fil3" d="M5516.51 6578.57c1.6,-13.33 11.04,-20.77 14.14,-23.22 26.56,-17.27 52.83,2.67 47.08,27.43 -6.18,26.58 -41.54,36.03 -56.48,15.09 -3.85,-5.38 -5.57,-12.42 -4.74,-19.3z"/>
    <path class="fil3" d="M5487.18 6004.82c0.27,-0.58 2.34,-0.79 3.12,-0.87 5.52,-0.44 13.64,0.13 12.22,1.49 -1.96,1.86 -15.31,1.45 -15.37,-0.47 0,-0.05 0.02,-0.1 0.03,-0.15z"/>
    <path class="fil3" d="M5478.8 6046.02c0.84,-3.54 5.25,-5.48 6.7,-6.11 12.66,-4.6 25.56,1.1 22.75,7.8 -3.54,8.42 -25,9.49 -29.07,1.45 -0.5,-1.01 -0.63,-2.07 -0.38,-3.14z"/>
    <path class="fil3" d="M5463.44 6139.24c1.31,-6.65 7.9,-10.41 10.07,-11.64 19.02,-9.01 37.81,1.78 32.82,14.47 -5.93,15.08 -36.83,17.26 -42.4,2.99 -0.72,-1.85 -0.89,-3.81 -0.49,-5.82z"/>
    <path class="fil3" d="M5461.83 6014.35c-3.19,4.72 -21.56,6.9 -23.13,2.75 -0.11,-0.29 -0.25,-1.07 0.76,-2.06 1.87,-1.83 5.93,-2.89 7.26,-3.25 10.25,-2.33 17.19,-0.54 15.11,2.56z"/>
    <path class="fil3" d="M5429.35 6005.47l14.31 -0.96c0.01,0 0.03,-0.01 0.04,-0.01l-0.04 0.01c-1.67,0.1 -3.35,0.25 -5.55,0.45 -2.67,0.24 -8.92,0.81 -9.69,0.64 0.24,-0.07 0.26,-0.08 0.93,-0.13z"/>
    <path class="fil3" d="M5403.71 6078.01c2.3,-5.02 8.61,-8.03 10.68,-9.02 17.2,-7.03 30.71,-0.62 26.19,8.72 -5.75,11.91 -32.84,16.09 -37.16,5.72 -0.32,-0.74 -0.92,-2.78 0.29,-5.42z"/>
    <path class="fil3" d="M5401.17 6032.92c-4.3,8.29 -30.72,14.68 -32.49,7.85 -0.21,-0.83 -0.03,-2.24 2.08,-4.21 3.54,-3.31 9.54,-5.44 11.52,-6.14 13.61,-4.33 21.34,-2.21 18.89,2.5z"/>
    <path class="fil3" d="M5369.77 6014.6c4.75,-1.49 10.39,-2.58 12.51,-2.99 3.25,-0.59 10.94,-1.92 12.05,-1.39 -0.35,1.23 -12.12,4.52 -15.82,5.4 -10.22,2.43 -13.54,2.14 -13.86,1.65 -0.36,-0.54 1.61,-1.56 5.12,-2.67z"/>
    <path class="fil3" d="M5357.57 6116.32c-5.13,16.23 -39.8,26.45 -45.81,13.5 -0.77,-1.66 -1.23,-4.45 0.89,-8.37 3.64,-6.72 11.7,-11 14.35,-12.41 20.9,-9.73 33.64,-2.45 30.57,7.28z"/>
    <path class="fil3" d="M5291.46 6036.78c6.53,-3.2 13.93,-5.59 16.36,-6.37 11.86,-3.63 15.61,-3.58 15.16,-2.33 -1.8,5.02 -38.11,18.18 -38.85,14.09 -0.15,-0.8 1.7,-2.64 7.33,-5.39z"/>
    <path class="fil3" d="M5284.96 6070.38c5.12,-5.03 12.92,-8.44 15.49,-9.56 17.04,-6.77 25.65,-4.42 22.71,1.93 -5.25,11.38 -38.67,23.18 -41.58,14.69 -0.61,-1.78 0.63,-4.35 3.38,-7.06z"/>
    <path class="fil3" d="M5320.11 6248.26c-6.4,23.27 -46.45,35.82 -56.39,17.67 -1.36,-2.49 -2.59,-6.69 -0.72,-12.55 3.23,-10.16 12.84,-16.6 16,-18.72 24.74,-14.34 45.94,-3.98 41.11,13.6z"/>
    <path class="fil3" d="M5248.13 6043.67c9.07,-2.99 21.15,-7.08 30.3,-9.86 -7.29,2.39 -13.97,4.76 -23.74,8.31 -9.29,3.36 -15.43,5.58 -17.41,6.01 0.52,-0.64 6.18,-2.78 10.85,-4.46z"/>
    <path class="fil3" d="M5223.44 6061.83c13.96,-5.93 17.86,-5.66 16.95,-3.63 -3.22,7.22 -43.11,27.12 -45.4,22.65 -0.7,-1.37 2.8,-4.76 9.15,-8.85 7.93,-5.1 16.49,-8.91 19.3,-10.17z"/>
    <path class="fil3" d="M5167.06 6078.19c0.96,-0.48 2.25,-1.13 3.21,-1.61l30.64 -14.29c1,-0.43 1.16,-0.5 1.56,-0.64 -0.38,0.22 -49.11,25.34 -52.45,26.24 1.27,-1.57 12.34,-7.3 17.04,-9.7z"/>
    <path class="fil3" d="M5153.04 6099.94c-1.77,8.35 -45.12,37.19 -49.35,32.84 -1.37,-1.42 2.75,-6.38 10.5,-12.65 8.87,-7.17 18.06,-12.55 21.09,-14.32 17.39,-9.75 17.99,-6.96 17.76,-5.87z"/>
    <path class="fil3" d="M5069.71 6137.58c14.64,-9.97 34.01,-23.49 49.15,-32.75l0.98 -0.6c-0.47,0.33 -52.8,36.03 -54.51,36.82 0.28,-0.33 0.55,-0.65 4.38,-3.47z"/>
    <path class="fil3" d="M5049.34 6161.91c15.91,-11.73 17.11,-9.46 17.1,-8.48 -0.11,8.58 -47.13,49.15 -50.31,43.42 -0.94,-1.71 3.76,-8.24 11.72,-16.26 9.26,-9.34 18.46,-16.37 21.49,-18.68z"/>
    <path class="fil3" d="M5025.25 6172.94l0.22 -0.21 2.29 -1.97c-0.62,0.54 -1.51,1.31 -2.51,2.18l-27.2 24.84c11.81,-11.36 21.94,-20.28 27.2,-24.84z"/>
    <path class="fil3" d="M5003.75 6245.27c7.23,-11.04 16.54,-19.03 19.6,-21.66 17.32,-13.86 25.32,-12.46 24.06,-4.1 -2.86,18.82 -41.27,53.6 -48.93,44.3 -2.39,-2.91 -0.42,-9.84 5.27,-18.54z"/>
    <path class="fil3" d="M5024.48 6479.6c3.08,30.5 -27.39,65.2 -45.91,52.3 -6.76,-4.72 -9.88,-14.93 -8.34,-27.31 1.98,-16 10.51,-27.03 13.32,-30.66 19.52,-21.91 38.82,-15.2 40.93,5.67z"/>
    <path class="fil3" d="M4951.03 6252.46c9.07,-11.57 17.56,-20.29 20.35,-23.16 8.46,-8.42 13.13,-12.11 14.69,-11.61 2.07,4.76 -42.58,56.78 -47.3,55.11 -1.21,-2.81 9.08,-16.28 12.26,-20.34z"/>
    <path class="fil3" d="M4924.18 6325.78c6.78,-13.18 15.27,-22.8 18.06,-25.96 16,-16.96 21.02,-13.6 21.46,-8.94 1.67,17.59 -35.12,65.49 -44.23,57.59 -2.92,-2.54 -1.08,-11.45 4.71,-22.69z"/>
    <path class="fil3" d="M4889.18 6334.46c8.26,-13.84 15.03,-23.83 17.58,-27.59 4.26,-6.15 9.34,-13.31 10.91,-14.05 0.41,3.69 -37.22,64.01 -41.08,65.86 -0.19,-2.59 9.58,-19.2 12.59,-24.22z"/>
    <path class="fil3" d="M4892.7 6373c2.72,15.6 -27.21,73.65 -35.59,69.02 -3.06,-1.7 -1.57,-12.4 3.71,-26.63 5.69,-15.28 12.61,-26.47 14.88,-30.15 14.41,-21.82 16.69,-14.03 17,-12.24z"/>
    <path class="fil3" d="M4838.1 6440.04c0.04,-0.09 0.08,-0.19 0.11,-0.28 8.61,-22.59 19.06,-45.49 23.47,-54.62 -7.69,16.1 -16.51,38.13 -23.47,54.62 -0.2,0.54 -0.41,1.08 -0.61,1.62l0.5 -1.34z"/>
    <path class="fil3" d="M4818.13 6512.44c3.95,-17.32 8.41,-29.5 10.09,-34.09 7.52,-19.28 9.93,-17.87 10.61,-16.36 4.19,9.18 -16.7,81.48 -23.28,80.58 -2.4,-0.33 -1.32,-13 2.58,-30.13z"/>
    <path class="fil3" d="M4815.29 6655.75c10.32,10.74 11.17,89.23 0.95,88.4 -3.81,-0.3 -7.9,-13.99 -9.73,-32.53 -1.87,-19.09 -0.56,-33.19 -0.13,-37.82 2.73,-21.82 7.14,-19.89 8.91,-18.05z"/>
    <path class="fil3" d="M4804.99 6565.85c0.91,-5.72 1.27,-6.67 1.53,-7.36 2.04,4.36 -8.49,88.81 -8.67,89.49 -0.29,-1.05 -0.29,-1.05 -0.2,-3.76 1.74,-23.55 3.9,-54.99 7.34,-78.37z"/>
   </g>
   <g>
    <path class="fil0" d="M13903.19 8758.63c-2.01,-8.24 -2.87,-14.09 -3.2,-16.3 -0.49,-3.72 -0.86,-7.31 -0.27,-8.38 3.17,0.38 9.31,35.94 8.28,38.29 -0.09,0 -0.23,-0.01 -0.33,-0.02 -1.52,-1.86 -3.81,-10.87 -4.48,-13.59z"/>
    <path class="fil0" d="M13925.45 8697.46c4.08,-10.73 9.66,-7.92 12.33,-2.5 5.83,11.86 1.16,33.13 -6.76,30.75 -3.25,-0.98 -6.02,-6.29 -6.88,-13.23 -0.96,-7.65 0.75,-13.2 1.31,-15.02z"/>
    <path class="fil0" d="M13925 8627.4c1.23,-7.05 4.13,-12.12 5.08,-13.78 5.94,-9.28 9.74,-7.19 10.85,-3.51 3.19,10.58 -7.93,33.71 -14.16,29.46 -2.11,-1.44 -2.8,-6.22 -1.77,-12.17z"/>
    <path class="fil0" d="M13930.21 8808.62c-2.1,-0.07 -5.96,-5.46 -9.18,-12.84 -3.33,-7.64 -4.33,-13.39 -4.66,-15.28 -1.37,-10.53 2.49,-7.73 3.27,-7.06 7.17,6.07 15.95,35.33 10.57,35.18z"/>
    <path class="fil0" d="M13925.66 8768.13c-2.85,-0.18 -6.39,-5.75 -8.44,-13.24 -2.1,-7.74 -1.69,-13.46 -1.55,-15.34 1.37,-10.53 5.84,-8.03 8.02,-5.24 7.24,9.29 8.69,34.26 1.97,33.82z"/>
    <path class="fil0" d="M13909.97 8684.34c-2.1,-0.93 -3.31,-6.38 -3.01,-13.57 0.32,-7.81 2.18,-13.46 2.79,-15.31 4.31,-11.38 7.31,-6.51 7.64,-5.92 4.71,8.51 -1.46,37.45 -7.42,34.8z"/>
    <path class="fil0" d="M13911.63 8787.42l-3.91 -11.71c1.54,4.65 7.56,20.67 11.82,30.92 0.92,2.1 1.8,4.13 2.61,6 -0.73,-1.54 -1.62,-3.62 -2.61,-6 -2.78,-6.35 -5.87,-13.41 -7.91,-19.21z"/>
    <path class="fil0" d="M13927.27 8819.4c-3.12,-7.67 -2.11,-8.2 -1.23,-7.83 4.25,1.77 21.34,32.91 19.04,34.71 -0.98,0.77 -5.38,-4.52 -10.02,-12.04 -4.52,-7.33 -6.9,-12.78 -7.79,-14.84z"/>
    <path class="fil0" d="M13951.8 8810.84c9.59,6.85 19.34,30.57 13.04,31.72 -3.03,0.55 -8.8,-4.58 -13.43,-11.94 -4.44,-7.06 -5.5,-12.17 -5.9,-14.1 -1.24,-8.92 3.37,-7.77 6.29,-5.68z"/>
    <path class="fil0" d="M13944.52 8778.54c1.29,-9.42 7.47,-8.61 12.46,-2.45 8.54,10.55 9.96,30.13 2.13,29.51 -3.79,-0.3 -8.75,-5.62 -11.8,-12.65 -3.18,-7.31 -2.89,-12.66 -2.79,-14.41z"/>
    <path class="fil0" d="M13957.64 8845.26c8.24,3.51 26.68,29.6 21.94,31.02 -1.88,0.56 -7.7,-3.37 -14.19,-10.93 -5.66,-6.58 -8.1,-11.52 -9.01,-13.38 -3.61,-8.27 0.06,-7.23 1.26,-6.71z"/>
    <path class="fil0" d="M13973.19 8877.36c4.18,-0.1 31.21,25.61 29.83,28.35 -0.61,1.22 -6.92,-2.34 -14.99,-9.39 -6.71,-5.87 -10.62,-10.66 -11.9,-12.24 -4.23,-5.51 -3.93,-6.69 -2.94,-6.72z"/>
    <path class="fil0" d="M14077.73 8792.84c2.39,12.44 -7.84,21.02 -17.64,14.81 -3.6,-2.29 -6.46,-6.27 -7.64,-10.65 -1.78,-6.62 0.69,-10.83 1.63,-12.41 7.6,-10.07 21.41,-3.47 23.65,8.25z"/>
    <path class="fil0" d="M14073.84 8678.32c0.18,-6.51 4.37,-10.66 5.75,-12.03 11.39,-9.45 24.17,-2.5 23.59,9 -0.7,13.71 -17.86,21.57 -26.23,12.01 -2.07,-2.36 -3.2,-5.63 -3.11,-8.98z"/>
    <path class="fil0" d="M14041.57 8726.76c-1.66,-1.43 -4.52,-4.66 -4.95,-10.21 -0.53,-6.82 3.07,-11.31 4.26,-12.79 10.07,-10.38 23.54,-3.74 23.97,8.38 0.48,13.36 -14.1,22.52 -23.28,14.62z"/>
    <path class="fil0" d="M14063.48 8627.11c-1.44,13.85 -18.78,22.59 -26.13,13.18 -1.79,-2.3 -2.63,-5.56 -2.31,-8.96 0.63,-6.58 4.86,-10.85 6.25,-12.26 11.49,-9.86 23.39,-3.44 22.19,8.04z"/>
    <path class="fil0" d="M14035.23 8818.99c4.42,-9.86 16.98,-4.73 21.85,6.07 4.71,10.46 0.77,21.37 -9.17,17.69 -4.48,-1.66 -8.97,-6.14 -11.42,-11.4 -3.04,-6.49 -1.74,-10.75 -1.26,-12.36z"/>
    <path class="fil0" d="M14055.66 8902.9c-3.5,0.7 -11.76,-3.84 -18.04,-9.93 -5.83,-5.64 -7.19,-9.61 -7.7,-11.11 -1.61,-7.18 5,-5.65 9.55,-2.99 10.1,5.9 22.58,22.75 16.19,24.03z"/>
    <path class="fil0" d="M14045.64 8854.39c7.53,9.18 9.43,21.5 1.15,20.41 -4.56,-0.61 -10.89,-5.29 -15.07,-11.14 -4.41,-6.17 -4.41,-10.36 -4.41,-11.94 1.11,-8.78 11.27,-5.93 18.33,2.67z"/>
    <path class="fil0" d="M14016.33 8766.19c-3.46,-2.3 -6.12,-6.45 -7.12,-11.11 -1.5,-6.97 1.14,-11.72 2,-13.27 7.4,-10.59 19.77,-5.29 22.58,6.29 3.28,13.53 -7.49,24.69 -17.46,18.09z"/>
    <path class="fil0" d="M14003.16 8682.68c-3,-2.29 -4.8,-6.47 -4.8,-11.17 0,-6.96 3.6,-11.68 4.78,-13.24 9.51,-10.51 20.69,-5.34 21.39,6.23 0.82,13.52 -12.56,24.9 -21.37,18.18z"/>
    <path class="fil0" d="M14012.21 8783.69c5.7,12.31 0.39,24.88 -9.03,21.35 -4.32,-1.62 -8.51,-6.35 -10.68,-12.05 -2.66,-6.98 -1.24,-11.69 -0.71,-13.46 4.38,-10.34 15.57,-6.3 20.42,4.16z"/>
    <path class="fil0" d="M14007.5 8874.15c-3.69,0.33 -10.6,-4.42 -16.07,-11.05 -5.28,-6.4 -6.47,-10.98 -6.92,-12.71 -1.36,-8.27 4.63,-6.92 9,-4 11.06,7.41 21,27.13 13.99,27.76z"/>
    <path class="fil0" d="M13999.49 8816.79c7.96,10.07 9.95,25.38 1.26,24.5 -4.38,-0.45 -10.29,-5.49 -14.06,-11.98 -3.95,-6.79 -3.79,-11.51 -3.74,-13.29 1.32,-9.49 10.12,-7.34 16.54,0.77z"/>
    <path class="fil0" d="M13995.8 8881.76c-3.65,-7.27 1.06,-6.17 2.59,-5.66 9.61,3.2 29.81,24.9 25.13,27 -2.15,0.97 -9.77,-2.67 -17.67,-9.62 -6.56,-5.78 -9.1,-10.1 -10.05,-11.72z"/>
    <path class="fil0" d="M14013.9 8903.76c6.07,0.18 36.2,21.79 33.24,23.84 -1.37,0.96 -9.6,-2.26 -18.54,-7.99 -7.68,-4.92 -11.51,-8.82 -12.95,-10.29 -4.2,-4.67 -3.27,-5.6 -1.75,-5.56z"/>
    <path class="fil0" d="M14042.22 8908.55c-3.39,-5.33 0.29,-5.08 2.03,-4.72 8.9,1.83 32.14,20.34 28.58,22.77 -1.72,1.17 -10.89,-2.23 -19.7,-8.21 -7.18,-4.87 -9.89,-8.48 -10.91,-9.84z"/>
    <path class="fil0" d="M14060.96 8926.73c4.74,-0.47 38.3,16.65 36.64,18.68 -0.77,0.95 -10.42,-1.5 -20.85,-6.32 -8.36,-3.86 -12.35,-6.95 -13.86,-8.12 -3.08,-2.64 -3.73,-4.07 -1.93,-4.24z"/>
    <path class="fil0" d="M14083.81 8770.52c-2.3,-2.36 -3.83,-5.62 -4.2,-8.96 -0.72,-6.55 2.81,-10.73 3.97,-12.11 10.57,-10.21 24.27,-2.08 23.83,10.47 -0.46,13.18 -14.8,19.62 -23.6,10.6z"/>
    <path class="fil0" d="M14107.07 8590.81c-1.89,12.39 -19.25,19.56 -26.16,10.8 -1.68,-2.14 -2.37,-5.08 -1.89,-8.09 0.93,-5.75 5.32,-9.38 6.76,-10.57 11.68,-8.24 22.83,-2.25 21.29,7.86z"/>
    <path class="fil0" d="M14071.02 8492.85c-1.03,-1.76 -0.14,-3.93 0.48,-5.07 2,-3.66 6,-6.1 7.31,-6.9 9.26,-5 15.86,-2.76 14.58,2.52 -2,8.19 -18.93,15.34 -22.37,9.45z"/>
    <path class="fil0" d="M14080.87 8456.75c-2.29,6.24 -18.26,14.09 -20.1,9.89 -0.26,-0.6 -0.35,-1.97 1.94,-4.48 2.69,-2.94 6.47,-4.99 7.71,-5.67 7.73,-3.87 11.65,-2.99 10.45,0.26z"/>
    <path class="fil0" d="M14073.84 8547c-1.86,11.34 -19.92,19.77 -25.42,11.87 -1.27,-1.82 -1.54,-4.41 -0.76,-7.12 1.51,-5.15 5.86,-8.54 7.29,-9.66 10.99,-7.46 20.26,-3.43 18.89,4.91z"/>
    <path class="fil0" d="M14050.44 8509.4c-1.41,9.65 -18.54,19.93 -22.91,13.74 -0.65,-0.92 -1.45,-3.01 0.41,-6.79 2.21,-4.5 6.37,-7.58 7.74,-8.6 9.2,-6.11 15.59,-4.09 14.76,1.65z"/>
    <path class="fil0" d="M14040.92 8479.04c-1.94,7.4 -18.56,18.5 -21.18,14.14 -0.7,-1.18 0.13,-3.47 2.23,-6.13 3,-3.8 7,-6.51 8.32,-7.41 7.85,-4.92 11.57,-4.17 10.63,-0.6z"/>
    <path class="fil0" d="M14030.53 8580c-0.45,12.82 -17.13,24.46 -23.8,16.6 -1.05,-1.24 -2.64,-4.05 -1.54,-9.03 1.33,-5.99 5.47,-10.04 6.83,-11.37 10.61,-9.04 18.79,-4.17 18.51,3.8z"/>
    <path class="fil0" d="M13987.43 8558.1c-1.49,-1.7 -1.49,-4.91 0.01,-8.61 2.17,-5.36 6.22,-9.12 7.55,-10.35 8.67,-7.26 14.47,-5.56 14.25,0.49 -0.39,10.46 -16.69,24.27 -21.81,18.47z"/>
    <path class="fil0" d="M13977.69 8724.52c-3.57,-2.06 -6.09,-6.57 -6.76,-12.07 -0.88,-7.23 1.82,-12.27 2.71,-13.93 6.98,-10.68 17.25,-6.62 19.81,4.2 3.18,13.38 -6.69,27.03 -15.76,21.8z"/>
    <path class="fil0" d="M13971.34 8741.03c5.6,13.17 0.23,28.44 -8.7,24.75 -3.78,-1.56 -7.26,-6.48 -8.87,-12.53 -1.96,-7.36 -0.38,-12.62 0.14,-14.34 4.24,-10.62 13.28,-7.66 17.43,2.12z"/>
    <path class="fil0" d="M13953.15 8597.15c-1.9,-1.69 -2.17,-5.59 -0.73,-10.44 1.85,-6.22 5.48,-10.64 6.67,-12.1 7.47,-8.2 12.6,-6.86 13.06,-0.9 0.84,10.95 -13.36,28.48 -19,23.44z"/>
    <path class="fil0" d="M13961.03 8655.86c3.2,13.16 -6.06,30.41 -14.17,26.38 -3.19,-1.59 -5.22,-6.59 -5.17,-12.74 0.05,-7.4 2.85,-12.66 3.77,-14.39 6.23,-9.98 13.48,-7.79 15.57,0.75z"/>
    <path class="fil0" d="M13968.27 8880.45c-1.78,-1.24 -6.92,-7.26 -9.68,-10.63l-1.61 -1.96 -6.38 -8.22c-1.51,-2.02 -1.78,-2.39 -3.08,-4.2 -2.21,-3.13 -4.51,-6.47 -4.79,-7.59 1.81,-0.16 25.64,32.22 25.75,32.56 -0.06,0.01 -0.14,0.02 -0.21,0.04z"/>
    <path class="fil0" d="M13989.57 8902c-2.6,-2.49 -5.56,-5.31 -8.56,-8.21 -4.56,-4.34 -9.03,-8.76 -12.18,-12.19 3.52,3.73 7.89,8.04 12.18,12.19 5.09,4.83 10.27,9.55 13.86,12.72l4.29 3.64c-0.7,-0.53 -2.25,-1.85 -4.29,-3.64l-5.3 -4.51z"/>
    <path class="fil0" d="M14017.61 8922.76c-7.43,-4.89 -12.64,-9.23 -14.35,-10.66 -2.85,-2.47 -5.76,-5.11 -5.68,-6.03 1.6,-0.73 35.54,22.94 35.25,24.58 -1.12,0.44 -7.95,-3.1 -15.22,-7.89z"/>
    <path class="fil0" d="M14057.82 8940.76c-8.51,-3.83 -13.5,-7.16 -15.38,-8.42 -3.95,-2.81 -5.44,-4.42 -4.42,-4.78 2.78,-0.98 39.73,17.14 39.15,19.2 -1.53,0.75 -10.57,-2.05 -19.35,-6z"/>
    <path class="fil0" d="M14128.45 8958.53c-2.13,0.33 -12.37,-1.46 -21.91,-4.17 -9.27,-2.63 -14.39,-5.04 -16.32,-5.94 -2.72,-1.38 -4.31,-2.33 -4.38,-3.12 2.06,-1.96 42.35,12.76 42.67,12.99 -0.02,0.07 -0.04,0.17 -0.06,0.24z"/>
    <path class="fil0" d="M14118.59 8735.04c-2.04,-2.38 -3.2,-5.6 -3.18,-8.86 0.02,-6.35 4.01,-10.24 5.32,-11.51 11.04,-8.9 23.48,-1.59 22.96,9.72 -0.63,13.47 -16.81,20.34 -25.1,10.65z"/>
    <path class="fil0" d="M14145.57 8639.84c-1.3,12.75 -18.63,19.55 -26.12,10.24 -1.86,-2.31 -2.76,-5.45 -2.47,-8.61 0.57,-6.12 4.84,-9.84 6.25,-11.07 11.43,-8.35 23.43,-1.3 22.34,9.44z"/>
    <path class="fil0" d="M14151.3 8559.72c-2.88,10.65 -19.63,14.98 -24.88,6.43 -1.1,-1.8 -1.46,-3.94 -1.05,-6.19 0.92,-4.96 5.01,-7.94 6.35,-8.92 11.36,-6.99 22.08,-0.55 19.58,8.68z"/>
    <path class="fil0" d="M14138.39 8493.63c1.03,-3.55 4.55,-5.68 5.7,-6.38 9.7,-5 18.1,-0.46 15.73,6.2 -2.9,8.16 -18.21,11.01 -21.27,3.95 -0.23,-0.52 -0.7,-1.93 -0.16,-3.77z"/>
    <path class="fil0" d="M14184.38 8692.44c-2.45,11.93 -18.16,16.84 -25.09,7.85 -1.82,-2.36 -2.71,-5.49 -2.45,-8.6 0.49,-6.05 4.63,-9.59 5.99,-10.75 11.8,-8.36 23.88,0.17 21.55,11.5z"/>
    <path class="fil0" d="M14189.4 8607.52c-2.43,11.14 -18.02,15.71 -24.54,7.19 -1.69,-2.21 -2.46,-5.13 -2.11,-8.02 0.67,-5.54 4.74,-8.72 6.07,-9.77 11.52,-7.48 22.84,0.24 20.58,10.6z"/>
    <path class="fil0" d="M14194.17 8531.56c-2.22,9.12 -17.18,12.21 -22.24,4.6 -1.05,-1.57 -1.44,-3.42 -1.13,-5.32 0.68,-4.19 4.26,-6.58 5.44,-7.37 9.92,-5.52 19.81,0.34 17.93,8.09z"/>
    <path class="fil0" d="M14270.64 8629.91c-2.24,10.3 -16.17,13.53 -21.92,5.07 -1.49,-2.19 -2.16,-5.01 -1.84,-7.72 0.63,-5.25 4.26,-8.04 5.45,-8.95 10.17,-6.35 20.4,1.95 18.31,11.6z"/>
    <path class="fil0" d="M14310.78 8602.63c-2.41,9.04 -14.71,10.15 -19.34,1.75 -1.02,-1.85 -1.47,-3.93 -1.31,-6 0.36,-4.59 3.42,-6.86 4.42,-7.61 9.05,-5.38 18.53,3.27 16.23,11.86z"/>
    <path class="fil0" d="M14396.52 8501.05c1.03,-0.13 8.57,8.01 8.24,8.88 -0.22,0.57 -3.64,-2.6 -6.32,-5.85 -1.52,-1.85 -1.82,-2.52 -1.92,-2.74 -0.05,-0.19 -0.06,-0.22 0,-0.29z"/>
    <path class="fil0" d="M14395.15 8513.97c1.32,-2.18 8.27,5.13 9.19,8.81 0.43,1.75 -0.56,2.17 -2.41,1.04 -1.98,-1.2 -4.44,-3.91 -5.84,-6.42 -1.27,-2.28 -1.02,-3.15 -0.94,-3.43z"/>
    <path class="fil0" d="M14383.42 8528.79c3.54,-2.98 11.13,5.53 10.66,10.24 -0.34,3.54 -4.83,2.69 -8.41,-1.58 -1.61,-1.92 -2.31,-3.72 -2.53,-4.4 -0.9,-2.77 -0.01,-3.89 0.28,-4.26z"/>
    <path class="fil0" d="M14361.93 8546.28c5.49,-3.6 13.66,5.15 12.31,11.09 -1.2,5.27 -8.27,4.46 -12.2,-1.4 -0.96,-1.42 -1.57,-2.96 -1.79,-4.46 -0.47,-3.31 1.15,-4.76 1.68,-5.23z"/>
    <path class="fil0" d="M14360.16 8470.73c0,0.03 -0.01,0.06 -0.01,0.08 -0.44,0.35 -4.27,-2.21 -7.09,-4.56 -1.72,-1.43 -2.06,-1.93 -2.18,-2.1 -0.02,-0.05 -0.05,-0.12 -0.05,-0.18 0.62,-0.55 9.16,5.64 9.33,6.76z"/>
    <path class="fil0" d="M14350.72 8474.12c1.2,-1.94 9.31,4.6 10.1,7.3 0.41,1.4 -1,1.46 -3.33,0.13 -1.95,-1.1 -4.12,-2.94 -5.52,-4.68 -1.46,-1.82 -1.3,-2.52 -1.25,-2.75z"/>
    <path class="fil0" d="M14340.44 8486.43c3.52,-2.74 12.03,5.13 11.38,8.73 -0.59,3.23 -6.99,0.99 -10.39,-3.64 -0.34,-0.46 -0.72,-1.1 -0.94,-1.55 -1.1,-2.28 -0.31,-3.23 -0.05,-3.54z"/>
    <path class="fil0" d="M14345.96 8578.48c-1.94,7.02 -11.52,6.96 -15.77,-0.1 -0.98,-1.63 -1.51,-3.42 -1.53,-5.2 -0.03,-3.92 2.33,-5.75 3.11,-6.35 7.55,-4.52 16.26,4.17 14.19,11.65z"/>
    <path class="fil0" d="M14320.42 8501.53c5.36,-3.27 13.93,3.98 12.98,9.21 -0.87,4.78 -8.75,3.82 -12.78,-1.57 -0.74,-0.99 -1.3,-2.14 -1.54,-3.16 -0.67,-2.81 0.84,-4.07 1.34,-4.48z"/>
    <path class="fil0" d="M14314.82 8449.52c0.34,1.04 -1.74,0.69 -4.54,-0.77 -1.48,-0.77 -3,-1.78 -4.08,-2.7 -1.53,-1.31 -1.48,-1.81 -1.46,-1.97 0.91,-1.56 9.57,3.86 10.08,5.44z"/>
    <path class="fil0" d="M14312.29 8441.88c-0.59,0.14 -5.01,-2.04 -7.05,-3.12 -1.83,-0.96 -2.24,-1.25 -2.39,-1.36 -0.03,-0.03 -0.08,-0.08 -0.1,-0.12 0.69,-0.17 9.34,3.99 9.54,4.6z"/>
    <path class="fil0" d="M14296.57 8453.25c3.07,-2.13 11.47,3.81 11.11,6.58 -0.37,2.83 -7.59,0.45 -10.58,-3.48 -0.09,-0.11 -0.2,-0.26 -0.28,-0.38 -1.14,-1.74 -0.47,-2.48 -0.25,-2.72z"/>
    <path class="fil0" d="M14306.38 8529.64c-1.63,6.53 -12.16,6.24 -16.33,-0.46 -0.34,-0.54 -1.15,-2.01 -1.26,-3.77 -0.21,-3.4 2.06,-5.04 2.81,-5.58 7.25,-4.07 16.41,3.29 14.78,9.81z"/>
    <path class="fil0" d="M14278.59 8465.38c5.14,-2.81 13.75,3.61 12.39,7.59 -1.38,4.04 -10.46,1.99 -13.13,-2.96 -0.16,-0.29 -0.33,-0.69 -0.43,-1 -0.68,-2.25 0.71,-3.29 1.17,-3.63z"/>
    <path class="fil0" d="M14272.18 8551.75c-2,8 -14.54,9.32 -19.45,2.05 -1.09,-1.61 -1.61,-3.44 -1.52,-5.29 0.21,-4.06 3.21,-6.15 4.19,-6.84 8.8,-4.94 18.68,2.47 16.78,10.08z"/>
    <path class="fil0" d="M14270.5 8427.91c0.23,0.52 -2,0.14 -5.2,-1.15 -0.85,-0.33 -1.69,-0.71 -2.37,-1.06 -1.48,-0.74 -1.56,-0.98 -1.6,-1.07 0.27,-0.75 8.75,2.29 9.17,3.28z"/>
    <path class="fil0" d="M14265.39 8424.04c0.03,0.01 0.06,0.02 0.09,0.03 -0.06,-0.01 -0.29,-0.07 -1.41,-0.36 -0.21,-0.06 -0.39,-0.11 -0.58,-0.16l-2.7 -0.69c0.95,0.24 1.72,0.44 2.7,0.69l1.9 0.49z"/>
    <path class="fil0" d="M14255.93 8430c2.7,-1.52 10.44,2.81 9.8,4.49 -0.64,1.71 -7.09,-0.14 -9.44,-2.71 -1.05,-1.15 -0.53,-1.62 -0.36,-1.78z"/>
    <path class="fil0" d="M14265.74 8488.71c-1.54,5.71 -12.62,5.3 -16.03,-0.61 -0.47,-0.81 -0.73,-1.66 -0.79,-2.51 -0.19,-2.82 1.97,-4.24 2.68,-4.7 6.82,-3.5 15.59,2.4 14.14,7.82z"/>
    <path class="fil0" d="M14240.58 8438.53c4.61,-2.13 12.09,2.31 10.83,5.34 -1.35,3.25 -9.95,1.56 -11.8,-2.33 -0.05,-0.11 -0.11,-0.25 -0.15,-0.36 -0.54,-1.63 0.71,-2.4 1.12,-2.65z"/>
    <path class="fil0" d="M14232.88 8508.3c-2.09,7.39 -15.23,8.47 -19.25,1.59 -0.32,-0.54 -1.03,-1.99 -0.88,-3.78 0.29,-3.48 3.2,-5.34 4.15,-5.96 8.64,-4.5 17.88,1.49 15.98,8.15z"/>
    <path class="fil0" d="M14230.4 8416.95l1.33 0.19c0.03,0 0.06,0.01 0.08,0.01 -0.14,0 -0.76,-0.09 -2.01,-0.27 -0.82,-0.12 -1.47,-0.22 -2.23,-0.32l2.83 0.39z"/>
    <path class="fil0" d="M14222.32 8417.15c1.76,-0.5 8.05,1.18 7.66,2.05 -0.37,0.81 -5.28,-0.08 -7.3,-1.32 -0.82,-0.5 -0.48,-0.66 -0.36,-0.73z"/>
    <path class="fil0" d="M14228.28 8456.39c-1.78,4.92 -12.51,4.51 -14.72,-0.57 -0.19,-0.43 -0.32,-1.03 -0.31,-1.46 0.01,-2.19 2.03,-3.33 2.7,-3.71 6.23,-2.81 13.84,1.55 12.33,5.74z"/>
    <path class="fil0" d="M14210.12 8421.39c3.63,-1.18 9.11,1.05 8.42,2.85 -0.88,2.27 -8.35,1.44 -9.51,-1.07 -0.03,-0.06 -0.07,-0.15 -0.08,-0.21 -0.26,-0.96 0.81,-1.42 1.17,-1.57z"/>
    <path class="fil0" d="M14208.39 8575.56c0.53,-4.78 4.15,-7.38 5.34,-8.24 10.21,-6.04 20.62,1.07 18.83,9.95 -2.05,10.15 -17.38,13.12 -22.79,4.41 -1.14,-1.83 -1.62,-3.95 -1.38,-6.12z"/>
    <path class="fil0" d="M14201.53 8658.59c0.69,-5.67 4.7,-8.83 6.02,-9.87 11.3,-7.35 22.47,1.13 20.02,11.66 -2.62,11.31 -17.67,15.33 -24.02,6.42 -1.63,-2.29 -2.37,-5.28 -2.02,-8.21z"/>
    <path class="fil0" d="M14189.06 8414.56c0.12,-0.25 0.99,-0.34 1.33,-0.37 2.34,-0.19 5.8,0.05 5.19,0.63 -0.83,0.79 -6.51,0.62 -6.53,-0.2 0,-0.02 0,-0.04 0.01,-0.06z"/>
    <path class="fil0" d="M14185.5 8432.08c0.35,-1.5 2.23,-2.33 2.84,-2.6 5.39,-1.95 10.88,0.47 9.68,3.32 -1.5,3.58 -10.63,4.04 -12.36,0.62 -0.22,-0.43 -0.27,-0.88 -0.16,-1.34z"/>
    <path class="fil0" d="M14178.96 8471.73c0.56,-2.83 3.36,-4.42 4.28,-4.95 8.1,-3.83 16.09,0.76 13.96,6.16 -2.52,6.41 -15.66,7.34 -18.03,1.27 -0.31,-0.79 -0.38,-1.62 -0.21,-2.48z"/>
    <path class="fil0" d="M14178.28 8418.61c-1.36,2.01 -9.17,2.94 -9.84,1.17 -0.05,-0.12 -0.11,-0.45 0.32,-0.88 0.8,-0.77 2.53,-1.23 3.09,-1.37 4.36,-1 7.31,-0.24 6.43,1.08z"/>
    <path class="fil0" d="M14164.46 8414.83l6.09 -0.4c0.01,0 0.01,-0.01 0.02,-0.01l-0.02 0.01c-0.71,0.04 -1.43,0.1 -2.36,0.19 -1.14,0.1 -3.8,0.34 -4.12,0.27 0.1,-0.03 0.11,-0.03 0.39,-0.06z"/>
    <path class="fil0" d="M14153.56 8445.69c0.98,-2.14 3.66,-3.42 4.54,-3.84 7.31,-2.99 13.06,-0.26 11.14,3.71 -2.45,5.07 -13.97,6.84 -15.81,2.44 -0.13,-0.32 -0.38,-1.19 0.13,-2.31z"/>
    <path class="fil0" d="M14152.48 8426.51c-1.83,3.53 -13.07,6.24 -13.82,3.34 -0.09,-0.35 -0.01,-0.95 0.88,-1.79 1.51,-1.41 4.06,-2.31 4.9,-2.61 5.79,-1.84 9.08,-0.94 8.04,1.06z"/>
    <path class="fil0" d="M14139.12 8418.72c2.02,-0.64 4.42,-1.1 5.32,-1.27 1.39,-0.26 4.66,-0.82 5.13,-0.59 -0.15,0.52 -5.16,1.92 -6.73,2.29 -4.35,1.03 -5.76,0.91 -5.9,0.7 -0.15,-0.22 0.69,-0.66 2.18,-1.13z"/>
    <path class="fil0" d="M14133.93 8461.98c-2.18,6.91 -16.93,11.25 -19.48,5.75 -0.33,-0.71 -0.53,-1.9 0.38,-3.57 1.55,-2.85 4.98,-4.67 6.1,-5.27 8.89,-4.14 14.31,-1.04 13,3.09z"/>
    <path class="fil0" d="M14105.81 8428.15c2.78,-1.36 5.93,-2.37 6.96,-2.71 5.05,-1.54 6.64,-1.52 6.45,-0.99 -0.76,2.14 -16.21,7.74 -16.52,5.99 -0.07,-0.34 0.72,-1.12 3.11,-2.29z"/>
    <path class="fil0" d="M14103.05 8442.44c2.18,-2.14 5.5,-3.59 6.59,-4.06 7.25,-2.88 10.91,-1.88 9.66,0.82 -2.24,4.84 -16.45,9.86 -17.69,6.24 -0.26,-0.75 0.27,-1.85 1.44,-3z"/>
    <path class="fil0" d="M14118 8518.1c-2.72,9.9 -19.76,15.24 -23.98,7.52 -0.58,-1.06 -1.11,-2.85 -0.31,-5.34 1.37,-4.32 5.46,-7.06 6.81,-7.96 10.52,-6.1 19.54,-1.7 17.48,5.78z"/>
    <path class="fil0" d="M14087.38 8431.08c3.86,-1.27 9,-3.01 12.89,-4.19 -3.1,1.02 -5.94,2.03 -10.1,3.53 -3.95,1.43 -6.56,2.38 -7.4,2.56 0.22,-0.27 2.63,-1.18 4.61,-1.9z"/>
    <path class="fil0" d="M14076.88 8438.81c5.94,-2.53 7.6,-2.41 7.21,-1.55 -1.37,3.07 -18.33,11.54 -19.31,9.64 -0.3,-0.59 1.19,-2.03 3.9,-3.77 3.37,-2.17 7.01,-3.79 8.2,-4.32z"/>
    <path class="fil0" d="M14052.9 8445.77c0.41,-0.21 0.96,-0.49 1.37,-0.69l13.03 -6.08c0.42,-0.18 0.5,-0.21 0.67,-0.27 -0.17,0.09 -20.89,10.78 -22.32,11.16 0.55,-0.67 5.26,-3.11 7.25,-4.12z"/>
    <path class="fil0" d="M14046.94 8455.02c-0.75,3.55 -19.19,15.82 -20.99,13.96 -0.58,-0.6 1.17,-2.71 4.47,-5.38 3.77,-3.04 7.68,-5.33 8.97,-6.09 7.39,-4.14 7.65,-2.96 7.55,-2.49z"/>
    <path class="fil0" d="M14011.5 8471.02c6.23,-4.23 14.46,-9.98 20.9,-13.93l0.42 -0.25c-0.2,0.14 -22.46,15.33 -23.19,15.66 0.12,-0.14 0.24,-0.28 1.87,-1.48z"/>
    <path class="fil0" d="M14002.83 8481.37c6.77,-4.98 7.28,-4.02 7.27,-3.6 -0.04,3.65 -20.04,20.9 -21.39,18.46 -0.4,-0.72 1.6,-3.5 4.98,-6.91 3.94,-3.97 7.86,-6.96 9.14,-7.95z"/>
    <path class="fil0" d="M13992.59 8486.07l0.09 -0.09 0.98 -0.84c-0.27,0.23 -0.65,0.55 -1.07,0.93l-11.57 10.56c5.02,-4.83 9.33,-8.62 11.57,-10.56z"/>
    <path class="fil0" d="M13983.44 8516.83c3.08,-4.7 7.04,-8.1 8.34,-9.21 7.37,-5.9 10.77,-5.3 10.23,-1.75 -1.22,8.01 -17.55,22.8 -20.81,18.85 -1.02,-1.24 -0.18,-4.19 2.24,-7.89z"/>
    <path class="fil0" d="M13992.26 8616.5c1.31,12.97 -11.65,27.73 -19.53,22.24 -2.87,-2 -4.2,-6.35 -3.55,-11.61 0.85,-6.81 4.48,-11.5 5.67,-13.04 8.31,-9.32 16.51,-6.47 17.41,2.41z"/>
    <path class="fil0" d="M13961.02 8519.89c3.86,-4.92 7.47,-8.63 8.65,-9.85 3.6,-3.58 5.59,-5.15 6.25,-4.94 0.88,2.02 -18.11,24.15 -20.12,23.44 -0.51,-1.2 3.87,-6.92 5.22,-8.65z"/>
    <path class="fil0" d="M13949.6 8551.07c2.88,-5.6 6.49,-9.69 7.68,-11.04 6.81,-7.21 8.94,-5.78 9.13,-3.8 0.71,7.48 -14.94,27.85 -18.81,24.49 -1.25,-1.08 -0.46,-4.86 2,-9.65z"/>
    <path class="fil0" d="M13934.71 8554.76c3.51,-5.88 6.4,-10.13 7.48,-11.73 1.81,-2.62 3.97,-5.66 4.64,-5.98 0.17,1.57 -15.83,27.23 -17.47,28.02 -0.08,-1.11 4.07,-8.17 5.35,-10.31z"/>
    <path class="fil0" d="M13936.21 8571.16c1.15,6.63 -11.58,31.32 -15.14,29.35 -1.3,-0.72 -0.67,-5.27 1.58,-11.32 2.42,-6.5 5.36,-11.26 6.33,-12.83 6.13,-9.28 7.1,-5.96 7.23,-5.2z"/>
    <path class="fil0" d="M13912.99 8599.67c0.01,-0.04 0.03,-0.08 0.05,-0.12 3.66,-9.61 8.1,-19.35 9.98,-23.23 -3.28,6.85 -7.03,16.22 -9.98,23.23 -0.09,0.23 -0.18,0.46 -0.27,0.69l0.22 -0.57z"/>
    <path class="fil0" d="M13904.49 8630.46c1.68,-7.36 3.58,-12.54 4.3,-14.49 3.19,-8.21 4.22,-7.6 4.51,-6.96 1.78,3.9 -7.11,34.65 -9.9,34.27 -1.02,-0.14 -0.57,-5.53 1.09,-12.82z"/>
    <path class="fil0" d="M13903.28 8691.42c4.4,4.57 4.76,37.95 0.41,37.6 -1.62,-0.13 -3.36,-5.95 -4.14,-13.84 -0.8,-8.12 -0.24,-14.11 -0.05,-16.08 1.15,-9.28 3.03,-8.46 3.78,-7.68z"/>
    <path class="fil0" d="M13898.91 8653.18c0.38,-2.43 0.53,-2.83 0.64,-3.13 0.87,1.86 -3.61,37.78 -3.68,38.06 -0.13,-0.44 -0.13,-0.44 -0.09,-1.6 0.74,-10.01 1.66,-23.39 3.13,-33.33z"/>
   </g>
   <path class="fil3" d="M18075.48 5196.7c-1008.91,4.07 -1831.36,829.93 -1831.36,1838.9l0 904.39 759.1 0 0 -350.46 -408.58 0 0 -553.93c0,-818.14 670.07,-1488.31 1488.22,-1488.31 346.42,0 666.13,119.99 919.87,320.53l-672.55 672.61c186.38,93.59 306.73,285.27 306.73,495.03 0,304.37 -249.66,553.89 -553.98,554.07l-378.71 0 0 350.46 378.71 0c497.92,0 904.46,-406.46 904.46,-904.39 0,-185.9 -56.7,-359.03 -153.54,-503.1l666.02 -666.04c-348.28,-420.77 -861.54,-667.55 -1409.42,-669.76l-14.97 0zm-897.03 3677.62l904.48 0c1011.77,0 1838.81,-826.94 1838.81,-1838.72 0,-379.87 -116.53,-733.68 -315.65,-1027.41l-253.53 253.51c138.61,225.85 218.7,491.06 218.7,773.76 0,818.17 -670.14,1488.43 -1488.33,1488.43l-553.98 0 0 -1488.29c0,-304.29 249.67,-553.99 553.98,-553.99 18.67,0 37.18,0.97 55.34,2.72l286.18 -286.02c-105.48,-43.32 -220.78,-67.29 -341.49,-67.29 -497.93,0 -904.51,406.65 -904.51,904.58l0 1838.72z"/>
  </g>
 </g>
</svg>
