<svg width="33" height="32" viewBox="0 0 33 32" fill="none" xmlns="http://www.w3.org/2000/svg">
<g id="fluent:mail-20-filled">
<path id="Vector" d="M29.0502 11.7972V23.2004C29.0502 24.2613 28.6288 25.2787 27.8786 26.0288C27.1285 26.779 26.1111 27.2004 25.0502 27.2004H7.4502C6.38933 27.2004 5.37191 26.779 4.62177 26.0288C3.87162 25.2787 3.4502 24.2613 3.4502 23.2004V11.7972L15.8438 19.09C15.9669 19.1626 16.1073 19.2009 16.2502 19.2009C16.3931 19.2009 16.5335 19.1626 16.6566 19.09L29.0502 11.7972ZM25.0502 6.40039C26.0344 6.40024 26.9842 6.76296 27.7177 7.41917C28.4513 8.07539 28.9171 8.97902 29.0262 9.95719L16.2502 17.4724L3.4742 9.95719C3.58325 8.97902 4.04911 8.07539 4.78267 7.41917C5.51622 6.76296 6.46596 6.40024 7.4502 6.40039H25.0502Z" fill="white"/>
</g>
</svg>
